<?xml version="1.0" standalone="no"?>
<!DOCTYPE svg PUBLIC "-//W3C//DTD SVG 1.1//EN" "http://www.w3.org/Graphics/SVG/1.1/DTD/svg11.dtd" >
<svg xmlns="http://www.w3.org/2000/svg">
<metadata></metadata>
<defs>
<font id="kallosmditc_ttmedium" horiz-adv-x="1024" >
<font-face units-per-em="2048" ascent="1638" descent="-410" />
<missing-glyph horiz-adv-x="456" />
<glyph horiz-adv-x="0" />
<glyph unicode="&#xd;" horiz-adv-x="456" />
<glyph unicode=" "  horiz-adv-x="456" />
<glyph unicode="&#x09;" horiz-adv-x="456" />
<glyph unicode="&#xa0;" horiz-adv-x="456" />
<glyph unicode="!" horiz-adv-x="538" d="M127 1243q0 70 35 90q98 57 205 58q31 0 39 -35q6 -27 6 -117q0 -145 -47 -393q-59 -301 -70 -408h-53q-12 111 -70 418q-45 248 -45 387zM152 106q0 49 32.5 82t81.5 33q51 0 88 -34t37 -81q0 -53 -36 -88.5t-89 -35.5q-51 0 -82.5 33.5t-31.5 90.5z" />
<glyph unicode="&#x22;" horiz-adv-x="755" d="M33 956l41 201q31 154 50 181.5t105 27.5h133l-212 -379q-16 -31 -48 -31h-69zM393 956l39 201q31 154 49.5 181.5t106.5 27.5h135l-213 -379q-16 -31 -47 -31h-70z" />
<glyph unicode="#" horiz-adv-x="1331" d="M23 416l43 145h294l70 242h-297l43 147h297l119 416h158l-119 -416h211l119 416h159l-119 -416h308l-41 -147h-307l-72 -242h309l-41 -145h-309l-119 -416h-160l117 416h-209l-119 -416h-157l116 416h-294zM518 561h211l70 242h-209z" />
<glyph unicode="$" d="M98 131q6 84 6 170v51q-2 33 -2 49h50q20 -217 331 -235v434q-203 47 -294 125t-91 217q0 150 100.5 246t284.5 123v110h72v-104h35q145 0 268 -45q-8 -66 -8 -164q0 -14 2 -47v-47h-45q-49 182 -252 196v-379q223 -47 311 -122q94 -82 95 -242q0 -156 -105.5 -260.5 t-300.5 -136.5v-125h-72v118h-43q-225 0 -342 68zM305 1032q0 -72 40 -110.5t138 -67.5v354q-178 -10 -178 -176zM555 170q195 16 195 203q0 80 -45.5 127t-149.5 75v-405z" />
<glyph unicode="%" horiz-adv-x="1515" d="M18 1042q0 168 88.5 262.5t245.5 94.5q305 0 305 -330q0 -172 -88 -265t-247 -93q-139 0 -221.5 89t-82.5 242zM160 1047q0 -127 53 -201t139 -74q164 0 164 283q0 276 -192 276q-164 0 -164 -284zM211 0l975 1380l106 2l-956 -1382h-125zM858 313q0 168 88 262.5 t246 94.5q305 0 305 -330q0 -172 -88 -265t-248 -93q-139 0 -221 89t-82 242zM999 317q0 -127 53.5 -200.5t139.5 -73.5q164 0 164 283q0 276 -193 276q-164 0 -164 -285z" />
<glyph unicode="&#x26;" horiz-adv-x="1464" d="M63 356q0 293 306 371q-86 154 -86 279q0 145 127 234t348 89q117 0 268 -55q-10 -158 -10 -268h-43q-33 217 -262 217q-168 0 -168 -162q0 -152 125 -346q113 -176 364 -443q59 117 60 260q0 109 -40 147t-161 48v47q135 -6 276 -6q49 0 248 6v-47q-119 -20 -141 -74 q-18 -86 -37 -174q-35 -152 -129 -274q68 -70 131 -92q47 -18 129 -19q35 0 68 6l8 -47q-207 -90 -346 -90q-61 0 -166 88q-133 -86 -336 -86q-532 0 -533 391zM305 414q0 -154 106.5 -246t286.5 -92q90 0 164 33q-199 180 -440 534q-117 -78 -117 -229z" />
<glyph unicode="'" horiz-adv-x="430" d="M33 956l41 201q31 154 50 181.5t105 27.5h133l-212 -379q-16 -31 -48 -31h-69z" />
<glyph unicode="(" horiz-adv-x="647" d="M90 684q0 692 526 727l37 -63q-178 -6 -259 -167t-81 -497q0 -338 80 -496q80 -164 260 -170l-37 -63q-272 14 -399 191.5t-127 537.5z" />
<glyph unicode=")" horiz-adv-x="647" d="M-6 20q178 6 260 170q80 158 80 494t-80 496.5t-260 169.5l37 63q270 -14 398 -192.5t128 -536.5q0 -694 -526 -727z" />
<glyph unicode="*" horiz-adv-x="729" d="M88 1110q0 31 19.5 80t33.5 49q25 0 127 -63l66 -41l-19 75q-23 92 -22 129q0 27 78 27q76 0 75 -27q0 -37 -22 -129l-18 -75l65 41q102 63 127 63q14 0 33.5 -47t19.5 -78q0 -20 -16 -22q-45 -16 -129 -21l-78 -4l59 -51q100 -86 101 -103q0 -16 -47 -53t-68 -37 q-23 0 -74 129l-28 72l-31 -72q-55 -129 -74 -129q-20 0 -67 37t-47 53t100 103l59 51l-78 4q-88 4 -129 21q-16 2 -16 18z" />
<glyph unicode="+" horiz-adv-x="1705" d="M254 528v166h514v527h170v-527h514v-166h-514v-528h-170v528h-514z" />
<glyph unicode="," horiz-adv-x="339" d="M70 174q106 53 170 53q37 0 36 -180v-92q0 -82 -41.5 -123t-158.5 -78q6 98 6 209q0 125 -12 211z" />
<glyph unicode="-" horiz-adv-x="847" d="M57 373v141h729v-141h-729z" />
<glyph unicode="." horiz-adv-x="364" d="M68 106q0 49 32.5 82t83.5 33t88 -34t37 -81q0 -53 -35.5 -88.5t-89.5 -35.5q-51 0 -83.5 34.5t-32.5 89.5z" />
<glyph unicode="/" horiz-adv-x="624" d="M43 -88l442 1538h129l-442 -1538h-129z" />
<glyph unicode="0" horiz-adv-x="1386" d="M61 653q0 336 189 545q182 201 465 201q612 0 612 -682q0 -344 -177 -548t-468 -204q-305 0 -463 175t-158 513zM319 668q0 -289 108 -442.5t302 -153.5q176 0 257 150.5t81 465.5q0 596 -412 596q-336 0 -336 -616z" />
<glyph unicode="1" horiz-adv-x="827" d="M109 0v45q106 12 137 29q41 20 59 80q27 84 27 528q0 270 -13 479l-184 -20l-14 45q178 76 340 180h141q-31 -399 -31 -709q0 -444 39 -534q16 -39 60 -55q31 -10 125 -23v-45q-246 8 -379 8q-129 0 -307 -8z" />
<glyph unicode="2" horiz-adv-x="1101" d="M74 158q651 453 651 858q0 260 -229 260q-242 0 -324 -234h-47q18 127 33 295q197 55 383 56q236 0 345 -81t109 -259q0 -377 -671 -881q158 -10 327 -10q190 0 256 26q86 33 109 142l49 -8l-25 -234q-6 -68 -29.5 -85t-88.5 -17q-72 0 -282 11t-347 11q-68 0 -207 -6z " />
<glyph unicode="3" horiz-adv-x="1120" d="M115 326h49q37 -135 127 -194.5t256 -59.5q246 0 246 274q0 182 -111 257t-365 75h-34l28 117h11q408 0 407 272q0 219 -233 219q-217 0 -285 -194h-45q14 158 14 251q137 55 355 56q240 0 349 -67.5t109 -223.5q0 -283 -358 -342q422 -31 422 -369q0 -203 -143.5 -317.5 t-405.5 -114.5q-233 0 -379 74q0 98 -14 287z" />
<glyph unicode="4" horiz-adv-x="1243" d="M90 500q397 514 596 874l272 31q-31 -451 -30 -725v-160q106 1 264 21l-47 -125l-215 2q6 -238 37 -293q37 -72 184 -80v-45l-338 8q-172 0 -350 -8v45q150 8 188 82q29 55 35 295q-55 0 -182 2h-197q-80 0 -203 -8zM332 573q0 -39 84 -47q18 -2 272 -6v162q0 270 -8 514 q-348 -588 -348 -623z" />
<glyph unicode="5" horiz-adv-x="1189" d="M150 31v282h45q61 -236 323 -235q152 0 208 70.5t56 259.5q0 303 -317 303q-92 0 -189 -54l-67 43q0 322 -12 637l20 41q399 -31 621 -30q119 0 151 127l45 -5q-29 -258 -39 -288q-25 -63 -127 -64q-172 0 -528 27q-23 -104 -23 -346q125 53 301 53q434 0 435 -385 q0 -229 -145.5 -365.5t-389.5 -136.5q-197 0 -368 66z" />
<glyph unicode="6" horiz-adv-x="1273" d="M121 670q0 340 182 535.5t492 195.5q145 0 309 -41q-6 -80 -6 -162q0 -59 2 -90h-49q-61 193 -269 192q-217 0 -310 -150.5t-93 -483.5q0 -307 76.5 -451.5t244.5 -144.5q119 0 170.5 77.5t51.5 251.5q0 311 -256 312q-115 0 -256 -86l4 92q176 117 360 117 q403 0 404 -381q0 -215 -145.5 -351.5t-375.5 -136.5q-283 0 -409.5 169t-126.5 536z" />
<glyph unicode="7" horiz-adv-x="1021" d="M96 1214q0 78 45 273h45q6 -92 56 -117q35 -18 153 -18h27q172 0 341 10t165 10q37 0 37 -35q0 -106 -127 -319q-68 -102 -133 -205q-92 -143 -140 -276q-78 -217 -78 -457q-6 -63 -33.5 -78.5t-127.5 -15.5q-111 0 -111 51q0 197 180 489q37 59 189 279q109 158 151 254 q8 25 23 76q-145 -12 -443 -13q-98 0 -135 8q-84 18 -84 84z" />
<glyph unicode="8" horiz-adv-x="1204" d="M76 344q0 268 317 369q-264 47 -264 311q0 176 127 274.5t365 98.5q457 0 456 -326q0 -254 -264 -342q301 -47 301 -342q0 -195 -143.5 -307.5t-401.5 -112.5q-494 0 -493 377zM342 348q0 -289 266 -289q236 0 236 293q0 295 -262 295q-127 0 -183.5 -70.5t-56.5 -228.5z M375 1038q0 -262 248 -262q206 0 206 252q0 260 -237 260q-217 0 -217 -250z" />
<glyph unicode="9" horiz-adv-x="1273" d="M137 950q0 211 145.5 330t409.5 119q481 0 482 -602q0 -408 -168 -620t-490 -212q-178 0 -338 53q8 82 8 209v74h45q41 -238 310 -238q197 0 284.5 172.5t87.5 540.5q0 518 -297 518q-127 0 -179 -74.5t-52 -248.5q0 -311 258 -312q125 0 244 70l-4 -90 q-166 -98 -334 -98q-412 0 -412 409z" />
<glyph unicode=":" horiz-adv-x="360" d="M68 113q0 49 32.5 81.5t83.5 32.5t88 -33.5t37 -80.5q0 -51 -35.5 -88t-89.5 -37q-51 0 -83.5 34.5t-32.5 90.5zM68 676q0 51 32.5 84t83.5 33t88 -35t37 -82q0 -51 -35.5 -87t-89.5 -36q-51 0 -83.5 34t-32.5 89z" />
<glyph unicode=";" horiz-adv-x="364" d="M68 674q0 51 34.5 85t83.5 34q51 0 87 -35t36 -84q0 -51 -34.5 -87t-88.5 -36q-49 0 -83.5 36t-34.5 87zM70 174q106 53 170 53q37 0 36 -180v-92q0 -82 -41.5 -123t-158.5 -78q6 68 6 156q0 207 -12 264z" />
<glyph unicode="&#x3c;" horiz-adv-x="1705" d="M264 530v160l1178 486v-185l-934 -381l934 -381v-182z" />
<glyph unicode="=" horiz-adv-x="1705" d="M254 322v165h1198v-165h-1198zM254 733v168h1198v-168h-1198z" />
<glyph unicode="&#x3e;" horiz-adv-x="1705" d="M264 47v182l934 381l-934 381v185l1178 -486v-160z" />
<glyph unicode="?" horiz-adv-x="958" d="M123 1079q18 183 18 246q119 61 314 61q213 0 309 -71.5t96 -237.5q0 -152 -127 -278q-121 -117 -387 -248l2 -162l-53 -16l-109 221q211 111 310.5 219.5t99.5 241.5q0 207 -199 207q-160 0 -229 -183h-45zM219 106q0 49 33 82t84 33q53 0 89 -34t36 -81 q0 -53 -36 -88.5t-89 -35.5t-85 33.5t-32 90.5z" />
<glyph unicode="@" horiz-adv-x="1640" d="M49 659q0 332 224.5 536t605.5 204q348 0 530 -153.5t182 -444.5q0 -215 -139 -356.5t-356 -141.5q-188 0 -189 150q0 12 4 49q-166 -199 -299 -199q-164 0 -163 191q0 207 137 366q131 154 248 154q47 0 155 -53l39 36l137 17q-96 -377 -96 -529q0 -102 84 -102 q111 0 180.5 104.5t69.5 282.5q0 256 -148.5 399.5t-416.5 143.5q-276 0 -438 -174t-162 -471q0 -291 170 -458t456 -167q199 0 387 100l21 -55q-186 -123 -490 -123q-352 0 -542.5 180.5t-190.5 513.5zM631 553q0 -121 74 -121q94 0 213 164l45 262q-102 45 -158 45 q-72 0 -123 -101.5t-51 -248.5z" />
<glyph unicode="A" horiz-adv-x="1490" d="M-10 0v45q96 6 166 98q43 59 135 256q295 633 405 971h129q190 -575 435 -1089q57 -121 94 -162q53 -61 147 -72v-47q-242 10 -299 10q-31 0 -123 -4q-121 -4 -194 -6v47q143 2 143 90q0 57 -115 330h-479q-88 -229 -88 -317q0 -96 143 -105v-45q-70 2 -178 6 q-84 4 -108 4q-35 0 -213 -10zM477 571h393q-92 225 -190 504q-12 -35 -203 -504z" />
<glyph unicode="B" horiz-adv-x="1259" d="M47 0v45q113 10 151 33.5t54 101.5q20 98 20 496v117q0 307 -22 397q-29 119 -133 119q-35 0 -70 -9v52q298 34 574 34h16q248 0 361.5 -68.5t113.5 -227.5q0 -265 -281 -349q385 -39 386 -333q0 -217 -138.5 -314.5t-433.5 -97.5q-68 0 -172 6t-141 6q-72 0 -285 -8z M514 668q6 -469 14 -555q90 -20 172 -21q45 0 76 6q174 31 174 275q0 162 -90 231q-82 66 -268 66q-45 0 -78 -2zM514 766h12q242 0 297 156q23 63 23 110q0 254 -264 254q-33 0 -50 -2q-18 -106 -18 -317v-201z" />
<glyph unicode="C" horiz-adv-x="1376" d="M61 674q0 336 214 529.5t591 193.5q211 0 396 -84q-16 -115 -21 -322h-57q-63 297 -391 297q-463 0 -463 -592q0 -287 157.5 -443.5t444.5 -156.5q160 0 321 60l35 -76q-225 -117 -514 -117q-348 0 -530.5 182.5t-182.5 528.5z" />
<glyph unicode="D" horiz-adv-x="1554" d="M45 0v45q100 10 135 27q43 23 62 82q26 79 26 491v31q0 451 -26 534q-18 59 -48 76t-100 17q-25 0 -49 -3v52q332 37 653 37q395 0 587 -162t192 -500q0 -352 -202 -541.5t-589 -189.5q-61 0 -180 6t-176 6q-88 0 -285 -8zM510 881q0 -502 14 -760q98 -25 215 -25 q246 0 356.5 141.5t110.5 458.5q0 307 -149.5 447.5t-474.5 140.5h-33q-23 -2 -35 -2q-4 -61 -4 -123v-278z" />
<glyph unicode="E" horiz-adv-x="1206" d="M45 0v45q96 12 125 23q45 16 61 53q39 86 39 555q0 453 -26 536q-18 59 -60 80q-33 16 -139 29v45q113 -8 244 -8q246 0 467 8q199 7 199 8h-3q98 0 111 -114v-166h-45q-8 96 -81 132t-237 36q-92 0 -188 -7v-491h117q180 0 235 22q63 29 72 127h47q-8 -129 -8 -206 q0 -70 8 -201h-47q-2 102 -84 131q-61 20 -277 20h-63v-231q0 -145 10 -203q12 -76 53 -96q53 -29 213 -29q135 0 202 41t89 146l45 -9l-24 -178q-10 -76 -35 -94t-98 -18q-78 0 -286 11t-339 11q-168 0 -297 -8z" />
<glyph unicode="F" horiz-adv-x="1103" d="M47 0v45q113 10 151 33.5t54 101.5q20 98 20 498q0 408 -20 506q-16 80 -54 103.5t-151 33.5v45q115 -8 248 -8q244 0 462 8q196 7 196 8h-3q98 0 111 -114v-166h-45q-8 96 -82 132t-240 36q-90 0 -180 -7v-487h143q143 0 197.5 28.5t60.5 118.5h48q-8 -121 -9 -206 q0 -18 9 -199h-48q-2 102 -88 131q-61 18 -290 18h-23v-149q0 -313 35 -389q16 -37 61 -53q31 -10 125 -23v-45l-350 8q-39 0 -338 -8z" />
<glyph unicode="G" horiz-adv-x="1552" d="M61 670q0 340 212 533.5t593 193.5q211 0 396 -84q-16 -115 -21 -322h-57q-63 297 -391 297q-463 0 -463 -592q0 -291 154.5 -451.5t430.5 -160.5q68 0 172 16q0 43 3 101v71q0 164 -44.5 215.5t-183.5 59.5v49q154 -6 344 -6q59 0 312 6v-49q-129 -10 -162 -113 q-23 -72 -27 -362q-236 -109 -557 -109q-346 0 -528.5 182.5t-182.5 524.5z" />
<glyph unicode="H" horiz-adv-x="1671" d="M47 0v45q113 10 151 33.5t54 101.5q20 98 20 502q0 403 -20 500q-16 78 -55 103.5t-150 35.5v45q147 -8 322 -8q160 0 366 8v-45q-92 -10 -123 -23q-43 -16 -61 -57q-39 -90 -39 -414v-67h641q0 358 -27 450q-18 61 -56 81t-140 30v45q180 -8 344 -8q166 0 344 8v-45 q-106 -10 -143 -33q-43 -27 -58 -102q-20 -113 -20 -447v-112q0 -385 26 -473q18 -59 58 -80q31 -16 137 -29v-45q-221 8 -332 8q-74 0 -356 -8v45q96 12 125 23q45 16 61 53q37 82 37 534h-641v-88q0 -356 39 -446q16 -39 61 -53q27 -10 123 -23v-45l-358 8q-176 0 -330 -8 z" />
<glyph unicode="I" horiz-adv-x="786" d="M47 0v45q113 10 151 33.5t54 101.5q20 98 20 502q0 403 -20 500q-16 78 -55 103.5t-150 35.5v45q150 -8 324 -8q150 0 364 8v-45q-92 -10 -123 -23q-45 -16 -61 -55q-39 -90 -39 -532v-84q0 -416 39 -506q16 -39 61 -53q27 -10 123 -23v-45q-260 8 -352 8q-180 0 -336 -8 z" />
<glyph unicode="J" horiz-adv-x="784" d="M47 1321v45q158 -8 338 -8q104 0 350 8v-45q-106 -12 -139 -29q-39 -20 -57 -82q-27 -90 -27 -536q0 -66 6 -242t6 -287q0 -2 2 -39v-71q0 -154 -59 -221q-102 -115 -381 -191l-14 49q156 86 190 250q14 68 14 305v217v-1l-2 110q-2 121 -2 254q0 319 -26 405 q-18 61 -60 82q-33 14 -139 27z" />
<glyph unicode="K" horiz-adv-x="1527" d="M47 0v45q113 10 151 33.5t54 101.5q20 98 20 500q0 406 -20 502q-16 78 -55 103.5t-150 35.5v45q158 -8 334 -8q150 0 354 8v-45q-92 -10 -123 -23q-45 -14 -61 -55q-39 -92 -39 -452v-89q283 246 381 349q133 135 133 200q0 61 -123 70v45q49 0 139 -4q76 -4 107 -4 q102 0 266 8v-45h-12q-68 0 -225 -141q-205 -186 -408 -375q438 -680 666 -707q31 -10 57 -10q12 0 33 4l12 -43q-160 -67 -279 -67h-4q-139 0 -301 168q-143 150 -362 497l-80 -72q0 -365 39 -454q16 -39 61 -53q27 -10 123 -23v-45q-248 8 -342 8q-176 0 -346 -8z" />
<glyph unicode="L" horiz-adv-x="1161" d="M47 0v45q113 10 151 33.5t54 101.5q20 98 20 496q0 410 -20 508q-16 80 -54 103.5t-151 33.5v45q174 -8 354 -8q170 0 334 8v-45q-150 -2 -188 -82q-33 -66 -33 -311v-230q-2 -141 -2 -190q0 -174 6 -225q16 -162 84 -166q102 -18 189 -19q137 0 203.5 41t86.5 146l45 -9 l-24 -178q-10 -76 -35 -94t-98 -18q-45 0 -284 11t-431 11q-23 0 -207 -8z" />
<glyph unicode="M" horiz-adv-x="1878" d="M47 0v47q98 6 134 30.5t46 98.5q27 193 27 938q0 117 -39 161t-141 44h-27v47q213 -6 293 -6q-8 0 192 8l418 -960q4 -4 2 0q324 709 396 952q49 -2 258 -2q10 0 84.5 3t144.5 5v-47q-92 -10 -125 -23q-45 -16 -61 -55q-39 -90 -39 -563q0 -467 39 -557q16 -39 61 -53 q29 -10 125 -21v-47l-356 8q-72 0 -334 -8v47q94 10 125 21q45 14 61 53q39 86 39 559v344q0 2 10 78q-426 -915 -436 -987h-153q-115 334 -441 995q6 -55 6 -123q0 -666 33 -799q35 -139 211 -141v-47q-72 2 -170 6q-78 4 -98 4q-16 0 -99 -4q-102 -4 -186 -6z" />
<glyph unicode="N" horiz-adv-x="1570" d="M47 0v47q98 6 134 30.5t46 98.5q25 172 25 844v94q0 121 -36 163t-136 42h-29v47q104 -6 209 -6q141 0 256 8q92 -156 311 -457q221 -307 445 -616q-4 575 -6 625q-8 240 -43 305q-49 92 -205 94v47q49 0 158 -4q92 -4 137 -4q25 0 94 4q78 2 129 4v-47q-111 -6 -129 -90 q-25 -113 -35 -1229h-213l-104 139q-598 797 -701 959v-86q0 68 -1 68q-4 0 -17 -418q-1 -40 -1 -78q0 -212 38 -336q63 -199 227 -201v-47q-70 2 -174 6q-80 4 -102 4q-10 0 -91 -4q-98 -4 -186 -6z" />
<glyph unicode="O" horiz-adv-x="1644" d="M61 662q0 342 219.5 539.5t596.5 197.5q332 0 519 -176.5t187 -491.5q0 -352 -210 -559t-578 -207q-348 0 -541 183.5t-193 513.5zM332 692q0 -295 142 -456.5t396 -161.5q227 0 333 142.5t106 447.5q0 297 -142.5 458.5t-394.5 161.5q-440 0 -440 -592z" />
<glyph unicode="P" horiz-adv-x="1208" d="M47 0v45q113 10 152 33.5t53 101.5q20 100 22 248q0 -16 -1 -16t-1 264v115q0 309 -22 397q-29 121 -137 121q-29 0 -66 -6v53q316 30 533 30h14q303 0 434 -86q139 -92 139 -309q0 -209 -148.5 -328.5t-420.5 -119.5q-57 0 -86 2q0 -334 39 -424q16 -39 61 -53 q27 -10 123 -23v-45q-244 8 -370 8q-152 0 -318 -8zM512 659q70 -16 123 -16q266 0 266 291q0 354 -354 354h-12q-10 -2 -19 -2q-4 -56 -4 -627z" />
<glyph unicode="Q" horiz-adv-x="1617" d="M49 659q0 344 219 542t596 198q334 0 520.5 -176t186.5 -492q0 -336 -195.5 -543.5t-521.5 -214.5q346 -139 500 -139q111 0 178 125l45 -25q-74 -186 -162 -292q-31 -37 -82 -37q-61 0 -213 76q-172 90 -346 180q-139 71 -194 71h-2q-113 0 -193 -219l-47 21 q39 141 121 284q-410 150 -410 641zM319 690q0 -618 537 -618q227 0 333.5 143.5t106.5 448.5q0 620 -536 620h-2q-438 0 -439 -594z" />
<glyph unicode="R" horiz-adv-x="1501" d="M47 0v45q113 10 151 33.5t54 103.5q20 100 20 494v115q0 311 -22 399q-31 121 -141 121q-27 0 -62 -6v51q272 30 569 30h19q270 0 400 -81.5t130 -260.5q0 -297 -297 -385q182 -291 314 -423q143 -147 262 -148q27 0 57 6l10 -43q-162 -69 -311 -69h-4q-127 0 -264 155 q-119 133 -307 463l-111 -2v-78q0 -311 37 -397q16 -39 59 -55q29 -10 125 -23v-45l-370 8q-145 0 -318 -8zM514 709q61 -6 113 -7q270 0 270 283q0 74 -27 133q-47 170 -352 170q-4 -55 -4 -579z" />
<glyph unicode="S" horiz-adv-x="1095" d="M80 43q6 109 6 221v76h57q2 -127 100.5 -197.5t280.5 -70.5q264 0 264 250q0 96 -49 151t-164 92q-104 33 -211.5 68t-168.5 82q-113 88 -113 258q0 195 143.5 310.5t395.5 115.5q156 0 297 -51q-8 -84 -9 -197q0 -70 2 -107h-51q-51 242 -309 242q-236 0 -236 -213 q0 -115 76 -164q45 -29 238 -86q227 -68 303 -133q96 -84 96 -266q0 -209 -153.5 -334t-417.5 -125q-252 0 -377 78z" />
<glyph unicode="T" horiz-adv-x="1153" d="M-12 1108l24 152q12 74 25 90q17 24 75 24h5q41 0 191.5 -8t258.5 -8q156 0 311 8l156 8q109 0 119 -114v-166h-41q-8 96 -76.5 132t-228.5 36q-6 0 -105 -5q-12 -160 -12 -585q0 -459 39 -549q16 -39 59 -55q31 -10 125 -23v-45l-356 8q-133 0 -332 -8v45q106 12 140 29 q41 20 59 80q27 84 27 522q0 274 -13 581q-86 4 -82 5q-156 0 -223 -31q-78 -35 -104 -131z" />
<glyph unicode="U" horiz-adv-x="1576" d="M47 1321v45q154 -8 301 -8q162 0 389 8v-45q-102 -10 -137 -29q-43 -20 -61 -84q-27 -88 -27 -506q0 -211 6 -288q8 -117 39 -168q53 -88 141 -121q74 -27 222 -27q201 0 274 107q68 98 68 354q0 463 -43 621q-37 135 -230 141v45q293 -10 283 -10q94 0 262 10v-45 q-115 -8 -135 -92q-23 -94 -29 -678q-2 -168 -16 -244q-23 -113 -86 -184q-133 -147 -453 -148q-281 0 -413 104.5t-132 326.5q0 2 2 102v197q0 362 -22 479q-14 76 -55 101.5t-148 35.5z" />
<glyph unicode="V" horiz-adv-x="1574" d="M4 1325v45q156 -8 344 -8h-2q0 1 277 8v-45q-139 -6 -140 -98q0 -66 103 -318q197 -481 254 -635q221 518 254 603q94 240 94 329q0 111 -135 119v45q39 0 135 -6q84 -4 131 -4q51 0 129 4q94 6 119 6v-45q-98 -8 -158 -74q-35 -39 -100 -172q-291 -584 -469 -1083h-154 q-217 604 -450 1096q-57 119 -99 165q-53 59 -133 68z" />
<glyph unicode="W" horiz-adv-x="2258" d="M-2 1319v47q154 -8 340 -8h-2q0 1 256 8v-47q-117 -6 -117 -88q0 -70 98 -320q129 -317 258 -637l228 510q-129 305 -187 400q-82 135 -174 135v47q72 0 166 -2t115 -2q68 0 98 -33q25 -27 62 -127l57 -151q90 221 96 233q41 78 111 78h45q88 0 158 4v-47 q-117 -2 -197 -100q-61 -76 -154 -287l267 -658q207 459 262 596q96 238 96 330q0 111 -137 119v47q57 -2 174 -6q86 -4 119 -4q72 0 215 10v-47q-84 -8 -137 -53q-45 -39 -93 -129q-262 -512 -491 -1145h-160q-45 150 -133 360q-94 225 -117 295l-6 19q-174 -367 -276 -674 h-158q-219 616 -451 1095q-57 121 -96 164q-53 61 -135 68z" />
<glyph unicode="X" horiz-adv-x="1464" d="M6 0v47q106 6 178 82q2 2 408 543q-178 258 -387 553q-82 94 -182 96v45q147 -8 317 -8q66 0 170 4q133 4 170 4l-2 -45q-150 -14 -150 -98q0 -41 62 -133q35 -55 170 -240q250 297 250 391q0 74 -115 80v45q53 0 154 -4q86 -4 125 -4q49 0 237 8v-45q-127 -14 -233 -121 q-66 -84 -363 -430q342 -479 385 -534q147 -188 223 -189q2 0 9 2h6v-49q-236 10 -299 10q-43 0 -148 -4q-147 -4 -211 -6v47q154 14 154 88q0 43 -76 158q-102 145 -205 291q-247 -318 -247 -433q0 -89 129 -104v-47q-70 2 -175 6q-80 4 -102 4q-20 0 -94 -4 q-94 -4 -158 -6z" />
<glyph unicode="Y" horiz-adv-x="1411" d="M4 1321v47q59 -2 162 -6q90 -4 127 -4q43 0 156 4q125 4 200 6v-47q-80 -10 -113.5 -30.5t-33.5 -67.5q0 -102 278 -518q272 360 273 532q0 45 -33 62.5t-117 21.5v45q164 -8 258 -8q29 0 105 4q86 4 137 4v-45q-92 -6 -158 -80q-25 -29 -422 -643v-59q0 -328 39 -418 q16 -37 60 -53q31 -10 125 -23v-45q-246 8 -349 8q-90 0 -340 -8v45q152 20 177 55q49 74 49 492q-287 461 -346 545q-133 188 -211 188q-10 0 -23 -4z" />
<glyph unicode="Z" horiz-adv-x="1071" d="M4 82q369 483 715 1178q-63 2 -135 2h-78q-213 0 -299 -31q-104 -35 -127 -135l-45 6l26 158q12 74 25 90q19 24 79 24h5q43 0 220 -8t310 -8h50q166 0 284 18v-92q-657 -1065 -657 -1137q0 -43 278 -43q199 0 263 25q88 35 114 158l45 -8l-24 -179q-10 -76 -35 -94 t-98 -18q-59 0 -267.5 10t-355.5 10q-145 0 -277 -8z" />
<glyph unicode="[" horiz-adv-x="524" d="M90 -86q8 61 8 506v694q0 231 -8 336h426l14 -64q-209 -12 -219 -147q-18 -225 -18 -555q0 -322 18 -559q10 -136 219 -148l-14 -63h-426z" />
<glyph unicode="\" horiz-adv-x="624" d="M43 1450h129l442 -1538h-129z" />
<glyph unicode="]" horiz-adv-x="524" d="M-6 -23q154 8 213 138q43 96 39 282q-14 569 -15 287q0 274 -18 555q-8 135 -219 147l14 64h426q-10 -115 -10 -295q0 6 2 -149v-320l-2 -477q0 -180 10 -295h-426z" />
<glyph unicode="^" horiz-adv-x="2048" d="M412 897l503 565h215l502 -565h-104l-506 397l-506 -397h-104z" />
<glyph unicode="_" d="M0 -311h1024v-172h-1024v172z" />
<glyph unicode="`" d="M246 1192q0 12 22 12q115 0 240 -24q16 -88 145 -242l-8 -12q-244 47 -321.5 143t-77.5 123z" />
<glyph unicode="a" horiz-adv-x="1003" d="M68 180q0 127 106 226q96 90 195 90q76 0 182 -43q4 49 4 67q0 88 -35 126t-117 38q-111 0 -233 -41l14 92q199 88 430 88q96 0 133 -39t37 -139q0 -29 -8 -112.5t-8 -139.5q0 -162 24.5 -220t96.5 -58q41 0 129 16l18 -43q-219 -106 -358 -106q-96 0 -109 124 q-116 -124 -287 -124h-3q-98 0 -154.5 54t-56.5 144zM291 231q0 -120 110 -120h2q74 0 148 61q-4 66 -4 117l2 23q2 24 2 48q-76 16 -143 17q-68 0 -92.5 -31t-24.5 -115z" />
<glyph unicode="b" horiz-adv-x="1067" d="M-70 1483q338 123 441 123q49 0 49 -43v1l-8 -115q-8 -128 -11 -275l-4 -502q163 151 344 151h2q129 0 200 -86t71 -243q0 -266 -146 -394q-134 -118 -245 -118h-2q-104 0 -322 77l-92 -65l-66 -6q29 272 29 727q0 403 -10 565q-6 100 -25.5 136t-79.5 36q-45 0 -106 -16 zM397 170q156 -47 236 -47q143 0 143 260q0 133 -46 206t-124 73q-109 0 -209 -82v-410z" />
<glyph unicode="c" horiz-adv-x="884" d="M76 383q0 219 168 340q149 108 312 108h3q86 0 242 -43q-16 -102 -21 -233h-37q-31 156 -260 156q-168 0 -168 -277q0 -152 84 -236.5t236 -84.5h6l186 32l-20 -86l-35 -24q-125 -55 -262 -55q-203 0 -318.5 107.5t-115.5 295.5z" />
<glyph unicode="d" horiz-adv-x="1163" d="M76 307q0 268 145 398q132 118 246 118h2q76 0 223 -53v131q0 326 -14 438q-8 63 -29.5 88t-73.5 25q-43 0 -104 -16l-18 47q332 123 438 123q45 0 45 -56v2q-1 0 -7 -102q-7 -114 -7 -242v-682q0 -258 18 -325q23 -88 109 -88q47 0 133 16l18 -39q-242 -108 -388 -108 h-3q-66 0 -92 59q-14 37 -19 119q-174 -180 -350 -180q-272 0 -272 327zM313 420q0 -276 170 -277q88 1 209 103v387q-158 47 -243 47q-135 0 -136 -260z" />
<glyph unicode="e" horiz-adv-x="942" d="M66 377q0 201 139 327.5t358 126.5q318 0 318 -395l-576 -37q12 -278 307 -278h2q119 0 248 49l-22 -92l-66 -43q-137 -55 -280 -55q-201 0 -314.5 106.5t-113.5 290.5zM309 512h334q-12 199 -178 199q-137 0 -156 -199z" />
<glyph unicode="f" horiz-adv-x="802" d="M39 694l22 99q82 25 134 92q-2 117 -5 243q-4 115 -4 129q0 102 43 157.5t174.5 120t251.5 64.5q49 0 90 -71q35 -61 35 -98q0 -25 -44 -52.5t-77 -27.5q-20 0 -73.5 60t-89.5 60q-74 0 -74 -415q0 -61 4 -250l373 18l-23 -129h-350v-473l10 -516l-200 -82l-70 -6 q31 502 31 1077h-158z" />
<glyph unicode="g" horiz-adv-x="1032" d="M-20 -438q0 168 253 254q-92 20 -122 34q-39 16 -39 48q0 123 223 215l154 63l-37 -6q-164 4 -251 79t-87 204q0 166 116.5 268t305.5 102q135 0 231 -59l283 20l18 -45l-194 -90q20 -55 20 -129q0 -131 -84 -219q-72 -74 -243 -152.5t-171 -105.5q0 -31 113 -51 q217 -35 315 -62q193 -51 193 -245q0 -178 -147.5 -284t-419.5 -106q-207 0 -318.5 71t-111.5 196zM168 -389q0 -102 85 -163.5t239 -61.5q266 0 266 206q0 127 -213 166l-238 43q-139 -80 -139 -190zM295 502q0 -115 54 -179.5t149 -64.5q78 0 109.5 47t31.5 160 q0 254 -178 254q-96 0 -131 -47t-35 -170z" />
<glyph unicode="h" horiz-adv-x="1175" d="M-68 1483q342 123 441 123q47 0 47 -43v2l-8 -116q-8 -130 -9 -275v-142q-2 -90 -2 -131v-239q252 161 458 161h3q102 0 103 -88q0 6 -13.5 -106.5t-13.5 -231.5q0 -166 18 -215q23 -61 105 -61q37 0 131 16l18 -45q-240 -110 -398 -110h-3q-61 0 -85 32.5t-24 114.5 q0 20 4.5 115.5t4.5 169.5q0 152 -15 196q-16 57 -76 58q-86 0 -217 -95v-575h-262q31 285 31 711q0 492 -14 630q-12 113 -90 113q-66 0 -115 -16z" />
<glyph unicode="i" horiz-adv-x="626" d="M0 715q304 108 418 108h2q49 0 49 -147v-64q-2 -47 -2 -73v-541h-254q25 213 25 408q0 160 -15 212q-20 63 -82 64q-51 0 -123 -10zM193 1317q164 55 215 55q20 0 28 -8q20 -45 21 -102q0 -127 -37 -170q-45 -53 -209 -76q8 86 8 133q0 88 -26 168z" />
<glyph unicode="j" horiz-adv-x="638" d="M0 717q317 106 422 106q49 0 49 -147q0 6 0 -53q-2 -59 -2 -123q0 8 0 -150q-2 -160 -2 -327q0 -326 14 -668l-256 -62l-24 15q35 109 35 676v424q0 160 -15 210q-18 63 -80 64q-51 0 -123 -10zM193 1317q166 57 215 57t49 -123t-41 -166q-47 -49 -205 -69q8 86 8 133v6 q0 85 -26 162z" />
<glyph unicode="k" horiz-adv-x="1097" d="M-68 1483q334 123 441 123q47 0 47 -43v1l-8 -118q-8 -129 -9 -272v-142q-2 -90 -2 -131v-373q201 176 256 217q106 80 181 80q63 0 127 -43q57 -41 57 -77q0 -33 -27.5 -77t-52.5 -44q-18 0 -92 30.5t-133 30.5q-41 0 -96 -49q145 -272 198 -344q86 -113 182 -113 q49 0 129 25l23 -39q-213 -143 -332 -143q-78 0 -166 122q-76 102 -209 367q-16 -12 -45 -37q0 -72 5 -436h-267q31 281 31 717q0 488 1 488l1 -165q0 203 -18 322q-14 92 -97 92q-45 0 -106 -16z" />
<glyph unicode="l" horiz-adv-x="577" d="M-68 1483q334 123 441 123q47 0 47 -43v2l-8 -116q-8 -130 -9 -278v-161q-2 -100 -2 -144v-872h-262q31 242 31 801v170q0 291 -14 376q-20 111 -90 111q-66 0 -115 -16z" />
<glyph unicode="m" horiz-adv-x="1785" d="M0 717q295 106 408 106q63 0 63 -131v-30q252 161 458 161h3q80 0 80 -71v-31q-2 -18 -2 -27v-28q264 157 461 157h2q102 0 102 -88q0 2 -14.5 -101.5t-14.5 -207.5q0 -184 17 -236q23 -69 104 -69h2q39 0 131 16l19 -45q-240 -110 -399 -110h-3q-61 0 -83.5 32.5 t-22.5 114.5q0 20 4 116.5t4 172.5q0 145 -14 192q-18 57 -76 58q-88 0 -219 -95v-575h-258q26 203 26 405v15q0 147 -14 192q-16 57 -76 58q-88 0 -219 -95v-575h-258q29 213 29 403q0 162 -15 215q-20 66 -82 66q-53 0 -125 -10z" />
<glyph unicode="n" horiz-adv-x="1245" d="M0 715q300 108 406 108h2q63 0 63 -131v-30q252 161 458 161h3q102 0 102 -88v1q-1 0 -13 -108q-13 -120 -13 -255q0 -147 20 -195q23 -57 100 -57q35 0 134 16l18 -45q-240 -110 -398 -110h-3q-61 0 -85 32.5t-24 114.5q0 20 4 115.5t4 169.5q0 150 -14 196 q-16 57 -76 58q-88 0 -219 -95v-579h-256q27 207 27 405q0 164 -15 217q-20 66 -82 66q-53 0 -125 -10z" />
<glyph unicode="o" horiz-adv-x="1038" d="M66 369q0 219 138 340.5t386 121.5q188 0 289.5 -102.5t101.5 -292.5q0 -207 -137 -331.5t-367 -124.5q-199 0 -305 101t-106 288zM311 424q0 -336 244 -336q96 0 138 69.5t42 223.5q0 336 -237 336q-102 0 -144.5 -67.5t-42.5 -225.5z" />
<glyph unicode="p" horiz-adv-x="1142" d="M0 717q272 106 379 106h1q65 0 77 -151q146 151 341 151h3q129 0 200.5 -85t71.5 -244q0 -285 -180 -420q-123 -92 -213 -92q-82 0 -223 47v-215q0 -332 8 -441l-201 -61h-78q35 203 37 668l2 421q0 166 -12 215q-16 66 -76 66q-51 0 -119 -10zM457 170q156 -47 235 -47 q143 0 144 260q0 133 -46.5 206t-123.5 73q-106 0 -209 -82v-410z" />
<glyph unicode="q" horiz-adv-x="1075" d="M74 307q0 270 143 398q134 118 250 118h2q82 0 236 -59v29l163 59l86 2q-34 -159 -34 -824v-38q0 -334 14 -420q23 -123 104 -123q53 0 99 14l20 -45q-291 -120 -414 -120h-2q-61 0 -61 59v-2q1 0 6 107q6 122 6 266v405q-161 -153 -344 -153h-2q-129 0 -200.5 85 t-71.5 242zM311 420q0 -276 170 -277q105 0 211 82v408q-158 47 -246 47q-135 0 -135 -260z" />
<glyph unicode="r" horiz-adv-x="880" d="M0 717q305 106 410 106q57 0 57 -135v-49q182 184 278 184h1q92 0 145 -161q-55 -78 -172 -95q-55 72 -109 72q-59 0 -145 -100v-541h-256q27 201 27 408q0 160 -15 212q-20 63 -82 64q-49 0 -121 -10z" />
<glyph unicode="s" horiz-adv-x="841" d="M80 25q10 66 20 208h37q12 -155 287 -155h4q123 0 123 119q0 57 -47 84q-37 20 -150 45q-147 31 -200 71q-66 49 -66 154q0 133 111 205q102 67 281 67h5q111 0 248 -43q-16 -133 -20 -209h-35q-8 66 -83 112t-169 46q-45 0 -70 -14q-34 -28 -34 -89q0 -54 63 -79 q16 -6 174 -41q211 -47 211 -227q0 -135 -106.5 -216t-296.5 -81q-164 0 -287 43z" />
<glyph unicode="t" horiz-adv-x="755" d="M33 694l20 107q76 23 133 61v103q0 172 -10 239q109 78 223 123h47q-24 -138 -24 -376v-19v-127l323 18l-20 -129h-303v-262v-41q-2 -27 -2 -37q0 -133 31 -180q35 -53 135 -53q47 0 139 16l18 -45q-219 -110 -424 -110h-4q-76 0 -106 51q-27 45 -27 155q0 -8 2 120 t2 265v121h-153z" />
<glyph unicode="u" horiz-adv-x="1239" d="M0 715q314 108 444 108h2q41 0 41 -35v2q-1 0 -10 -131q-10 -145 -10 -309q0 -127 10 -162q14 -51 72 -51q88 0 225 96v560l256 57l10 -19q-36 -131 -36 -439v-17q0 -131 8 -166q25 -90 116 -90q51 0 129 14l17 -43q-234 -108 -390 -108h-3q-57 0 -78 34.5t-25 128.5 q-237 -163 -420 -163h-2q-129 0 -129 100q0 6 5.5 109.5t5.5 201.5q0 166 -15 221q-18 68 -80 68q-53 0 -125 -10z" />
<glyph unicode="v" horiz-adv-x="1054" d="M-4 692q244 131 336 131q51 0 88 -80q23 -49 86 -245q53 -168 76 -217q31 -76 59 -76q45 0 92 90q55 109 55 264q0 29 -3 89.5t-3 92.5q0 100 187 101q43 0 43 -45q0 -152 -80 -320q-106 -223 -232 -364q-113 -127 -182 -127q-70 0 -117 92q-20 43 -92 262 q-63 197 -100 254q-45 78 -119 78q-29 0 -76 -19z" />
<glyph unicode="w" horiz-adv-x="1466" d="M-12 700q238 125 340 125q49 0 86 -135q6 -27 90 -414q84 164 141 326q51 145 51 146q16 25 78 56.5t94 31.5q23 0 31 -35q12 -66 25 -131q37 -156 108 -342q43 -113 72 -113q33 0 63 84q37 94 37 229q0 31 -4 101.5t-4 109.5q0 102 182 103q45 0 45 -47q0 -131 -51 -277 q-86 -242 -201 -397q-104 -141 -174 -141q-86 0 -209 307q-20 51 -57 162q-18 57 -31 57q-10 0 -61 -111q-74 -164 -147 -327q-35 -76 -166 -76q-29 0 -29 41q0 12 2 20q-57 375 -90 482q-45 147 -129 147q-33 0 -76 -18z" />
<glyph unicode="x" horiz-adv-x="929" d="M-16 686q211 121 331 121q57 0 109 -74q35 -53 111 -223l8 -18q104 78 125 182q6 59 10 121q12 45 145 45q33 0 47.5 -9.5t14.5 -48.5q0 -98 -76 -182q-59 -66 -227 -184q162 -291 290 -291q35 0 68 12l14 -39q-217 -121 -319 -121q-96 0 -236 312l-8 18 q-147 -109 -147 -272q0 -55 -51 -72q-25 -6 -103 -6q-57 0 -57 59q0 98 80 185q63 68 239 184q-141 276 -266 277q-39 0 -84 -15z" />
<glyph unicode="y" horiz-adv-x="1003" d="M-61 690q248 133 335 133q51 0 88 -80q25 -49 89 -245q57 -176 73 -217q31 -76 60 -76q49 0 94 96q55 113 55 287v67q-2 51 -2 86q0 100 184 101q41 0 41 -51q0 -160 -100 -355q-35 -68 -135 -221q-96 -143 -137 -233q-121 -256 -121 -402v-186q0 -98 -189 -99 q-37 0 -36 66q0 184 81 354q39 80 211 342q-62 -67 -103 -67h-1q-57 0 -104 133q-57 174 -117 348q-47 121 -72 154q-35 45 -100 45q-31 0 -76 -17z" />
<glyph unicode="z" horiz-adv-x="821" d="M37 104q377 416 457 551q-90 4 -132 4q-166 0 -210 -34q-41 -23 -54 -70l-43 10q31 164 49 201q31 57 115 57h-1l92 -6q100 -6 210 -6q125 0 199 4l8 -82q-90 -84 -436 -532h188q106 0 154 14q80 25 108 100l41 -14q-82 -256 -101 -287.5t-99 -31.5q-59 0 -176 12 t-175 12q-27 0 -53 -2l-133 -10z" />
<glyph unicode="{" horiz-adv-x="587" d="M35 655v56q51 8 78 47q23 33 41 114q0 66 26 273q29 150 109 203t280 63l25 -63q-117 -2 -164 -70t-59 -236q-4 -82 -11.5 -160.5t-42.5 -117.5q-53 -61 -161 -76v-10q109 -12 161 -76q35 -41 43 -117q6 -82 11 -161q12 -168 59 -236t164 -70l-25 -63 q-201 10 -280.5 63.5t-108.5 202.5q-16 84 -20 175t-6 98q-16 80 -39 112q-27 41 -80 49z" />
<glyph unicode="|" d="M424 -483v2048h178v-2048h-178z" />
<glyph unicode="}" horiz-adv-x="587" d="M-6 23q117 2 163 69.5t58 235.5l12 164q10 76 43 114q53 63 162 76v10q-111 16 -162 76q-33 39 -41 117t-14 159q-12 170 -55 234q-49 72 -166 74l24 63q201 -10 281 -63.5t109 -202.5q16 -80 20 -171t6 -101q18 -82 41 -115q25 -39 78 -47v-56q-53 -8 -80 -49 q-23 -33 -39 -112q0 -68 -26 -273q-29 -150 -109 -203t-281 -63z" />
<glyph unicode="~" horiz-adv-x="1705" d="M178 434v187q211 143 387 143q121 0 293 -59q215 -74 293 -74q166 0 379 153v-184q-205 -141 -381 -141q-88 0 -189.5 34.5t-201.5 67.5q-111 33 -195 33q-158 0 -385 -160z" />
<glyph unicode="&#xa1;" horiz-adv-x="538" d="M127 125q0 150 47 397q59 303 70 408h53q12 -125 70 -422q45 -242 45 -371q0 -84 -34 -103.5t-100.5 -38t-103.5 -18.5q-31 0 -39 35q-8 27 -8 113zM147 1262q0 53 37 88.5t90 35.5q49 0 82 -34.5t33 -89.5q0 -47 -32.5 -81t-82.5 -34q-53 0 -90 33.5t-37 81.5z" />
<glyph unicode="&#xa2;" horiz-adv-x="907" d="M66 608q0 178 113.5 297t303.5 133v166h82v-164q166 -10 248 -45q-8 -82 -12 -219h-51q-31 158 -185 164v-641q33 -6 82 -6q90 0 170 26l33 -67q-127 -68 -285 -74v-166h-82v166q-199 16 -308 130t-109 300zM305 623q0 -218 178 -308v619q-178 -33 -178 -311z" />
<glyph unicode="&#xa3;" horiz-adv-x="1130" d="M41 8q59 174 98 240q47 80 103 80q37 0 131 -25q39 72 39 154q0 78 -43 159h-203l-6 41l133 70q-109 150 -109 268q0 180 138.5 292t365.5 112q145 0 270 -72q-8 -68 -8 -190v-60h-43q-51 209 -295 209q-90 0 -140 -58.5t-50 -160.5q0 -139 151 -346q172 4 338 12 l-41 -117h-245q14 -41 14 -94q0 -152 -172 -241q328 -100 434 -101q90 0 129 111l49 -15q-49 -164 -90 -233q-45 -78 -104 -78q-70 0 -283 60q-20 6 -233 69q-98 29 -129 29q-92 0 -154 -127z" />
<glyph unicode="&#xa4;" horiz-adv-x="1241" d="M76 432l203 205q-80 109 -80 248q0 141 80 248l-203 204l92 93l203 -203q109 82 250 82q143 0 251 -82l203 203l94 -93l-204 -204q80 -106 79 -248q0 -139 -79 -248l204 -205l-94 -92l-203 205q-113 -82 -249 -82q-143 0 -252 82l-203 -205zM332 885q0 -121 85 -205 t206 -84t205.5 84t84.5 205q0 119 -86 205t-204 86q-119 0 -205 -86t-86 -205z" />
<glyph unicode="&#xa5;" horiz-adv-x="1411" d="M4 1321v47q59 -2 162 -6q90 -4 127 -4q43 0 156 4q125 4 200 6v-47q-80 -10 -113.5 -30.5t-33.5 -67.5q0 -86 278 -529q272 365 273 543q0 45 -34 61.5t-116 20.5v47q164 -8 258 -8q29 0 105 4q86 4 137 4v-47q-92 -2 -158 -78q-31 -35 -375 -571h256v-80h-305v-98h305 v-82h-303q2 -229 35 -289q37 -70 186 -76v-45q-238 8 -346 8q-178 0 -336 -8v45q150 8 189 78q29 57 33 287h-283v82h285v98h-285v80h246q-160 242 -322 481q-123 172 -200 172q-14 0 -21 -2z" />
<glyph unicode="&#xa6;" d="M424 -350v758h178v-758h-178zM424 674v758h178v-758h-178z" />
<glyph unicode="&#xa7;" horiz-adv-x="1120" d="M88 68h51q20 -274 346 -275q246 0 246 248q0 131 -72 190q-55 45 -229 99q-182 55 -250 116q-82 78 -82 228q0 180 154 293q-4 41 -4 57q0 164 124 269.5t324 105.5q133 0 262 -49v-297h-45q-47 238 -264 237q-127 0 -180 -48t-53 -171q0 -115 71 -168q45 -35 218 -88 q193 -59 260 -125q82 -82 82 -250q0 -195 -144 -338v-12q0 -188 -127 -294.5t-354 -106.5q-197 0 -334 75v304zM262 717q0 -98 76 -154q57 -45 223 -96q147 -45 209 -86q82 -53 102 -137q20 61 21 131q0 104 -55 168q-51 57 -172 104q-104 33 -211 68q-115 43 -166 125 q-27 -59 -27 -123z" />
<glyph unicode="&#xa8;" d="M289 1161q82 51 160 51q37 0 36 -106q0 -74 -42 -113t-144 -67q6 37 6 86q0 94 -16 149zM602 1161q82 51 158 51q37 0 37 -106q0 -76 -41 -114t-144 -66q6 37 6 86q0 94 -16 149z" />
<glyph unicode="&#xa9;" horiz-adv-x="555" d="M51 1176q0 88 66.5 154.5t158.5 66.5q94 0 161 -65.5t67 -160.5q0 -94 -67.5 -159.5t-164.5 -65.5q-88 0 -154.5 66.5t-66.5 163.5zM86 1171q0 -78 56.5 -135t133.5 -57q78 0 135.5 56.5t57.5 135.5q0 80 -56.5 135.5t-136.5 55.5t-135 -56.5t-55 -134.5zM164 1174 q0 133 117 133q96 0 100 -86h-53q-6 45 -49 45q-57 0 -58 -92q0 -90 60 -91q45 0 49 50h53q0 -98 -109 -99q-111 0 -110 140z" />
<glyph unicode="&#xaa;" horiz-adv-x="677" d="M57 627q0 82 70 147q63 57 125 57q55 0 110 -26q4 33 5 45q0 96 -91 96q-76 0 -153 -26l10 67q135 57 291 57q98 0 98 -114q0 -20 -4 -74.5t-4 -89.5q0 -106 12 -137q14 -37 66 -37q23 0 84 10l12 -35q-137 -70 -233 -69q-70 0 -78 82q-76 -82 -182 -82q-137 0 -138 129z M211 662q0 -72 68 -72q43 0 86 37q-2 23 -3 75v33q-55 10 -83 10q-43 0 -55.5 -19t-12.5 -64z" />
<glyph unicode="&#xab;" horiz-adv-x="1136" d="M100 336v156l471 319l29 -61l-297 -336l297 -342l-29 -62zM539 336v156l471 319l28 -61l-297 -336l297 -342l-28 -62z" />
<glyph unicode="&#xac;" horiz-adv-x="1705" d="M254 696v166h1198v-502h-166v336h-1032z" />
<glyph unicode="&#xad;" horiz-adv-x="847" d="M57 373v141h729v-141h-729z" />
<glyph unicode="&#xae;" horiz-adv-x="555" d="M51 1176q0 88 66.5 154.5t158.5 66.5q94 0 161 -65.5t67 -160.5q0 -94 -67.5 -159.5t-164.5 -65.5q-88 0 -154.5 66.5t-66.5 163.5zM86 1171q0 -78 56.5 -135t133.5 -57q78 0 135.5 56.5t57.5 135.5q0 80 -56.5 135.5t-136.5 55.5t-135 -56.5t-55 -134.5zM188 1049v243 h86q104 0 105 -71q0 -47 -53 -64l55 -108h-59l-48 100h-34v-100h-52zM240 1184h34q49 0 50 35q0 35 -52 34h-32v-69z" />
<glyph unicode="&#xaf;" d="M242 985v119h604v-119h-604z" />
<glyph unicode="&#xb0;" horiz-adv-x="503" d="M80 1182q0 72 50 123t122 51t122 -50t50 -124q0 -72 -50 -122t-122 -50t-122 50t-50 122zM162 1182q0 -39 25.5 -63.5t64.5 -24.5q37 0 63.5 25.5t26.5 62.5q0 39 -26.5 64.5t-63.5 25.5t-63.5 -25.5t-26.5 -64.5z" />
<glyph unicode="&#xb1;" horiz-adv-x="1705" d="M254 14v168h1198v-168h-1198zM254 707v165h514v334h170v-334h514v-165h-514v-334h-170v334h-514z" />
<glyph unicode="&#xb2;" horiz-adv-x="727" d="M49 639q430 274 430 516q0 156 -151 156q-160 0 -215 -142h-31q10 59 22 179q125 33 252 32q301 0 301 -204q0 -225 -444 -529q190 -6 217 -6q125 0 170 16q55 20 70 86l32 -6l-16 -139q-4 -41 -20.5 -51t-57.5 -10q-47 0 -185 6t-230 6q-76 0 -136 -2z" />
<glyph unicode="&#xb3;" horiz-adv-x="739" d="M76 739h33q45 -152 251 -151q162 0 162 164q0 109 -72.5 154.5t-240.5 45.5h-23l19 70h8q268 0 268 164q0 131 -153 131q-143 0 -189 -117h-30q10 88 10 152q92 33 233 32q158 0 230.5 -40.5t72.5 -133.5q1 -169 -235 -206q279 -18 278 -222q0 -121 -95 -189.5 t-267 -68.5q-158 0 -250 43q0 39 -10 172z" />
<glyph unicode="&#xb4;" d="M430 938q129 156 145 242q127 25 248 24q16 0 17 -12q0 -29 -78 -123t-324 -143z" />
<glyph unicode="&#xb6;" horiz-adv-x="1413" d="M23 952q0 252 165 353q152 94 506 94q190 0 639 -35l-2 -55q-49 4 -67 4q-98 0 -133 -53.5t-35 -192.5v-1354l-242 -30q47 141 47 1034q0 324 -6 553q-90 23 -174 24l-2 -1581l-180 -24l-62 -6q47 121 47 858h-47q-455 0 -454 411z" />
<glyph unicode="&#xb7;" horiz-adv-x="358" d="M43 522q0 55 40 95t95 40t95 -40t40 -95q0 -57 -38.5 -96t-96.5 -39q-57 0 -96 39t-39 96z" />
<glyph unicode="&#xb8;" d="M360 -391l9 98q131 -55 204 -55q74 0 74 57q0 37 -29.5 52.5t-105.5 31.5q-82 16 -100 25q-35 14 -35 43q0 45 45 155l49 -14q-12 -37 -12 -53q0 -25 26 -37q14 -4 82 -18q102 -20 140 -46q47 -31 47 -100q0 -168 -240 -168q-72 0 -154 29z" />
<glyph unicode="&#xb9;" horiz-adv-x="546" d="M72 545v26q70 8 93 18.5t36 47.5q18 51 18 317q0 147 -8 287l-121 -12l-10 26q109 43 225 109h92q-20 -227 -20 -424q0 -266 26 -322q16 -35 121 -47v-26q-121 4 -250 4q-115 0 -202 -4z" />
<glyph unicode="&#xba;" horiz-adv-x="690" d="M49 748q0 141 90 221t250 80q256 0 256 -256q0 -133 -90 -215t-238 -82q-268 0 -268 252zM223 782q0 -197 142 -196q106 0 106 174q0 195 -139 194q-61 0 -85 -38.5t-24 -133.5z" />
<glyph unicode="&#xbb;" horiz-adv-x="1136" d="M98 72l297 342l-297 336l31 61l469 -319v-156l-469 -326zM537 72l297 342l-297 336l30 61l469 -319v-156l-469 -326z" />
<glyph unicode="&#xbc;" horiz-adv-x="1505" d="M68 600v25q68 8 90 18t35 43q16 45 16 295q0 139 -8 270l-115 -12l-10 25q117 43 215 102h88q-18 -223 -19 -397q0 -248 25 -299q16 -33 115 -45v-25q-115 4 -238 4q-111 0 -194 -4zM334 -88l442 1538h129l-442 -1538h-129zM780 281q242 276 375 489l172 16 q-20 -281 -20 -405v-90q80 0 168 12l-31 -70h-135q4 -127 16 -151q23 -53 123 -57v-25l-213 4q-137 0 -221 -4v25q94 4 119 45q18 33 22 166q-35 0 -115 2h-125q-49 0 -127 -5zM932 322q0 -23 53 -27q20 -2 172 -4v90q0 135 -6 289q-219 -332 -219 -348z" />
<glyph unicode="&#xbd;" horiz-adv-x="1415" d="M68 600v25q68 8 90 18t35 43q16 45 16 295q0 139 -8 270l-115 -12l-10 25q117 43 215 102h88q-18 -223 -19 -397q0 -248 25 -299q16 -33 115 -45v-25q-115 4 -238 4q-111 0 -194 -4zM334 -88l442 1538h129l-442 -1538h-129zM770 88q410 254 410 481q0 145 -146 146 q-150 0 -203 -131h-30q10 55 22 166q123 31 240 30q287 0 287 -190q0 -211 -422 -494q90 -6 205 -6q119 0 161 14q53 18 68 80l33 -4l-17 -131q-4 -39 -19.5 -48t-55.5 -9q-45 0 -177.5 6t-218.5 6q-72 0 -131 -2z" />
<glyph unicode="&#xbe;" horiz-adv-x="1689" d="M72 782h30q45 -141 242 -141q156 0 156 154q0 100 -70 142t-229 42h-23l19 65h6q256 0 256 154q0 123 -148 123q-137 0 -178 -111h-29q8 68 9 142q84 31 223 30q291 0 291 -161q-1 -158 -228 -193q266 -14 267 -205q0 -115 -90.5 -179t-256.5 -64q-141 0 -237 43 q0 33 -10 159zM518 -88l443 1538h129l-443 -1538h-129zM965 281q242 276 374 489l172 16q-20 -281 -20 -405v-90q80 0 168 12l-31 -70h-135q4 -127 16 -151q23 -53 123 -57v-25l-213 4q-137 0 -221 -4v25q94 4 119 45q18 33 22 166q-35 0 -114 2h-125q-49 0 -127 -5z M1116 322q0 -23 53 -27q20 -2 172 -4v90q0 135 -6 289q-219 -332 -219 -348z" />
<glyph unicode="&#xbf;" horiz-adv-x="958" d="M98 291q0 158 127 282q119 117 389 244l-4 162l54 16l108 -221q-213 -113 -309 -217q-100 -113 -101 -254q0 -197 199 -197q160 0 232 183h43q-18 -178 -19 -246q-117 -61 -311 -61q-215 0 -311.5 71.5t-96.5 237.5zM498 1262q0 53 36.5 88.5t90.5 35.5q49 0 81.5 -34.5 t32.5 -89.5q0 -49 -32.5 -82t-81.5 -33q-53 0 -90 33.5t-37 81.5z" />
<glyph unicode="&#xc0;" horiz-adv-x="1490" d="M-10 0v45q96 6 166 98q43 59 135 256q295 633 405 971h129q190 -575 435 -1089q57 -121 94 -162q53 -61 147 -72v-47q-242 10 -299 10q-31 0 -123 -4q-121 -4 -194 -6v47q143 2 143 90q0 57 -115 330h-479q-88 -229 -88 -317q0 -96 143 -105v-45q-70 2 -178 6 q-84 4 -108 4q-35 0 -213 -10zM477 571h393q-92 225 -190 504q-12 -35 -203 -504zM479 1759q0 12 22 12q115 0 240 -24q16 -88 145 -242l-8 -12q-244 47 -321.5 143t-77.5 123z" />
<glyph unicode="&#xc1;" horiz-adv-x="1490" d="M-10 0v45q96 6 166 98q43 59 135 256q295 633 405 971h129q190 -575 435 -1089q57 -121 94 -162q53 -61 147 -72v-47q-242 10 -299 10q-31 0 -123 -4q-121 -4 -194 -6v47q143 2 143 90q0 57 -115 330h-479q-88 -229 -88 -317q0 -96 143 -105v-45q-70 2 -178 6 q-84 4 -108 4q-35 0 -213 -10zM477 571h393q-92 225 -190 504q-12 -35 -203 -504zM663 1505q129 156 145 242q127 25 248 24q16 0 17 -12q0 -29 -78 -123t-324 -143z" />
<glyph unicode="&#xc2;" horiz-adv-x="1490" d="M-10 0v45q96 6 166 98q43 59 135 256q295 633 405 971h129q190 -575 435 -1089q57 -121 94 -162q53 -61 147 -72v-47q-242 10 -299 10q-31 0 -123 -4q-121 -4 -194 -6v47q143 2 143 90q0 57 -115 330h-479q-88 -229 -88 -317q0 -96 143 -105v-45q-70 2 -178 6 q-84 4 -108 4q-35 0 -213 -10zM477 571h393q-92 225 -190 504q-12 -35 -203 -504zM509 1505q0 4 3 6l213 189l98 34l225 -188q4 -4 4 -12q0 -10 -41 -29.5t-80 -19.5q-16 0 -20 4l-168 114l-168 -102q-20 -12 -37 -12q-29 0 -29 16z" />
<glyph unicode="&#xc3;" horiz-adv-x="1490" d="M-10 0v45q96 6 166 98q43 59 135 256q295 633 405 971h129q190 -575 435 -1089q57 -121 94 -162q53 -61 147 -72v-47q-242 10 -299 10q-31 0 -123 -4q-121 -4 -194 -6v47q143 2 143 90q0 57 -115 330h-479q-88 -229 -88 -317q0 -96 143 -105v-45q-70 2 -178 6 q-84 4 -108 4q-35 0 -213 -10zM393 1532q90 244 178 243q23 0 184.5 -72.5t208.5 -72.5q51 0 113 94l49 -12q-102 -223 -180 -223q-43 0 -201 69.5t-182 69.5q-72 0 -115 -107zM477 571h393q-92 225 -190 504q-12 -35 -203 -504z" />
<glyph unicode="&#xc4;" horiz-adv-x="1490" d="M-10 0v45q96 6 166 98q43 59 135 256q295 633 405 971h129q190 -575 435 -1089q57 -121 94 -162q53 -61 147 -72v-47q-242 10 -299 10q-31 0 -123 -4q-121 -4 -194 -6v47q143 2 143 90q0 57 -115 330h-479q-88 -229 -88 -317q0 -96 143 -105v-45q-70 2 -178 6 q-84 4 -108 4q-35 0 -213 -10zM477 571h393q-92 225 -190 504q-12 -35 -203 -504zM522 1728q82 51 160 51q37 0 36 -106q0 -74 -42 -113t-144 -67q6 37 6 86q0 94 -16 149zM835 1728q82 51 158 51q37 0 37 -106q0 -76 -41 -114t-144 -66q6 37 6 86q0 94 -16 149z" />
<glyph unicode="&#xc5;" horiz-adv-x="1490" d="M-10 0v45q96 6 166 98q43 59 135 256q295 633 405 971h129q190 -575 435 -1089q57 -121 94 -162q53 -61 147 -72v-47q-242 10 -299 10q-31 0 -123 -4q-121 -4 -194 -6v47q143 2 143 90q0 57 -115 330h-479q-88 -229 -88 -317q0 -96 143 -105v-45q-70 2 -178 6 q-84 4 -108 4q-35 0 -213 -10zM477 571h393q-92 225 -190 504q-12 -35 -203 -504zM606 1573q0 66 45 112t111 46t111 -46t45 -112q0 -63 -45.5 -109.5t-110.5 -46.5q-63 0 -109.5 46t-46.5 110zM680 1569q0 -33 23.5 -56.5t58.5 -23.5q33 0 57.5 24.5t24.5 55.5 q0 33 -24.5 57.5t-57.5 24.5q-82 0 -82 -82z" />
<glyph unicode="&#xc6;" horiz-adv-x="1978" d="M-10 0v45q131 4 274 207q391 553 682 1044q-57 25 -129 25v45q113 -8 244 -8q246 0 467 8t196 8q98 0 111 -114v-166h-45q-8 96 -81 132t-236 36q-92 0 -189 -7v-491h117q180 0 235 22q63 29 72 127h47q-8 -121 -8 -206q0 -78 8 -201h-47q-2 102 -80 131q-57 20 -262 20 h-82q2 -307 4 -338q4 -129 29 -165q37 -55 223 -56q150 0 218.5 38t92.5 149l45 -9l-24 -178q-10 -76 -33.5 -94t-99.5 -18q-66 0 -287 11t-377 11q-74 0 -258 -8v45q156 6 193 90q25 57 32 332h-499q-170 -264 -170 -361q0 -61 106 -61h10v-45q-68 2 -176 6q-82 4 -108 4 q-37 0 -215 -10zM608 571h434v684z" />
<glyph unicode="&#xc7;" horiz-adv-x="1376" d="M61 674q0 334 215.5 528.5t589.5 194.5q211 0 396 -84q-16 -115 -21 -322h-57q-63 297 -391 297q-463 0 -463 -592q0 -287 157.5 -443.5t444.5 -156.5q160 0 321 60l35 -76q-221 -117 -514 -117q-59 0 -106 4q-2 -2 -9 -37v-2q0 -27 43 -39q8 -2 123 -26 q129 -27 129 -133q0 -168 -239 -168q-72 0 -154 28l8 99q131 -55 205 -56q74 0 74 58q0 39 -41 57q-27 12 -121 31q-109 20 -108 63q0 33 34 131q-268 39 -409.5 218.5t-141.5 482.5z" />
<glyph unicode="&#xc8;" horiz-adv-x="1206" d="M45 0v45q96 12 125 23q45 16 61 53q39 86 39 555q0 453 -26 536q-18 59 -60 80q-33 16 -139 29v45q113 -8 244 -8q246 0 467 8t196 8q98 0 111 -114v-166h-45q-8 96 -81 132t-237 36q-92 0 -188 -7v-491h117q180 0 235 22q63 29 72 127h47q-8 -129 -8 -206q0 -70 8 -201 h-47q-2 102 -84 131q-61 20 -277 20h-63v-231q0 -145 10 -203q12 -76 53 -96q53 -29 213 -29q135 0 202 41t89 146l45 -9l-24 -178q-10 -76 -35 -94t-98 -18q-78 0 -286 11t-339 11q-168 0 -297 -8zM303 1759q0 12 22 12q115 0 240 -24q16 -88 145 -242l-8 -12 q-244 47 -321.5 143t-77.5 123z" />
<glyph unicode="&#xc9;" horiz-adv-x="1206" d="M45 0v45q96 12 125 23q45 16 61 53q39 86 39 555q0 453 -26 536q-18 59 -60 80q-33 16 -139 29v45q113 -8 244 -8q246 0 467 8t196 8q98 0 111 -114v-166h-45q-8 96 -81 132t-237 36q-92 0 -188 -7v-491h117q180 0 235 22q63 29 72 127h47q-8 -129 -8 -206q0 -70 8 -201 h-47q-2 102 -84 131q-61 20 -277 20h-63v-231q0 -145 10 -203q12 -76 53 -96q53 -29 213 -29q135 0 202 41t89 146l45 -9l-24 -178q-10 -76 -35 -94t-98 -18q-78 0 -286 11t-339 11q-168 0 -297 -8zM487 1505q129 156 145 242q127 25 248 24q16 0 17 -12q0 -29 -78 -123 t-324 -143z" />
<glyph unicode="&#xca;" horiz-adv-x="1206" d="M45 0v45q96 12 125 23q45 16 61 53q39 86 39 555q0 453 -26 536q-18 59 -60 80q-33 16 -139 29v45q113 -8 244 -8q246 0 467 8t196 8q98 0 111 -114v-166h-45q-8 96 -81 132t-237 36q-92 0 -188 -7v-491h117q180 0 235 22q63 29 72 127h47q-8 -129 -8 -206q0 -70 8 -201 h-47q-2 102 -84 131q-61 20 -277 20h-63v-231q0 -145 10 -203q12 -76 53 -96q53 -29 213 -29q135 0 202 41t89 146l45 -9l-24 -178q-10 -76 -35 -94t-98 -18q-78 0 -286 11t-339 11q-168 0 -297 -8zM333 1505q0 4 3 6l213 189l98 34l225 -188q4 -4 4 -12q0 -10 -41 -29.5 t-80 -19.5q-16 0 -20 4l-168 114l-168 -102q-20 -12 -37 -12q-29 0 -29 16z" />
<glyph unicode="&#xcb;" horiz-adv-x="1206" d="M45 0v45q96 12 125 23q45 16 61 53q39 86 39 555q0 453 -26 536q-18 59 -60 80q-33 16 -139 29v45q113 -8 244 -8q246 0 467 8t196 8q98 0 111 -114v-166h-45q-8 96 -81 132t-237 36q-92 0 -188 -7v-491h117q180 0 235 22q63 29 72 127h47q-8 -129 -8 -206q0 -70 8 -201 h-47q-2 102 -84 131q-61 20 -277 20h-63v-231q0 -145 10 -203q12 -76 53 -96q53 -29 213 -29q135 0 202 41t89 146l45 -9l-24 -178q-10 -76 -35 -94t-98 -18q-78 0 -286 11t-339 11q-168 0 -297 -8zM346 1728q82 51 160 51q37 0 36 -106q0 -74 -42 -113t-144 -67q6 37 6 86 q0 94 -16 149zM659 1728q82 51 158 51q37 0 37 -106q0 -76 -41 -114t-144 -66q6 37 6 86q0 94 -16 149z" />
<glyph unicode="&#xcc;" horiz-adv-x="786" d="M47 0v45q113 10 151 33.5t54 101.5q20 98 20 502q0 403 -20 500q-16 78 -55 103.5t-150 35.5v45q150 -8 324 -8q150 0 364 8v-45q-92 -10 -123 -23q-45 -16 -61 -55q-39 -90 -39 -532v-84q0 -416 39 -506q16 -39 61 -53q27 -10 123 -23v-45q-260 8 -352 8q-180 0 -336 -8 zM127 1759q0 12 22 12q115 0 240 -24q16 -88 145 -242l-8 -12q-244 47 -321.5 143t-77.5 123z" />
<glyph unicode="&#xcd;" horiz-adv-x="786" d="M47 0v45q113 10 151 33.5t54 101.5q20 98 20 502q0 403 -20 500q-16 78 -55 103.5t-150 35.5v45q150 -8 324 -8q150 0 364 8v-45q-92 -10 -123 -23q-45 -16 -61 -55q-39 -90 -39 -532v-84q0 -416 39 -506q16 -39 61 -53q27 -10 123 -23v-45q-260 8 -352 8q-180 0 -336 -8 zM311 1505q129 156 145 242q127 25 248 24q16 0 17 -12q0 -29 -78 -123t-324 -143z" />
<glyph unicode="&#xce;" horiz-adv-x="786" d="M47 0v45q113 10 151 33.5t54 101.5q20 98 20 502q0 403 -20 500q-16 78 -55 103.5t-150 35.5v45q150 -8 324 -8q150 0 364 8v-45q-92 -10 -123 -23q-45 -16 -61 -55q-39 -90 -39 -532v-84q0 -416 39 -506q16 -39 61 -53q27 -10 123 -23v-45q-260 8 -352 8q-180 0 -336 -8 zM157 1505q0 4 3 6l213 189l98 34l225 -188q4 -4 4 -12q0 -10 -41 -29.5t-80 -19.5q-16 0 -20 4l-168 114l-168 -102q-20 -12 -37 -12q-29 0 -29 16z" />
<glyph unicode="&#xcf;" horiz-adv-x="786" d="M47 0v45q113 10 151 33.5t54 101.5q20 98 20 502q0 403 -20 500q-16 78 -55 103.5t-150 35.5v45q150 -8 324 -8q150 0 364 8v-45q-92 -10 -123 -23q-45 -16 -61 -55q-39 -90 -39 -532v-84q0 -416 39 -506q16 -39 61 -53q27 -10 123 -23v-45q-260 8 -352 8q-180 0 -336 -8 zM170 1728q82 51 160 51q37 0 36 -106q0 -74 -42 -113t-144 -67q6 37 6 86q0 94 -16 149zM483 1728q82 51 158 51q37 0 37 -106q0 -76 -41 -114t-144 -66q6 37 6 86q0 94 -16 149z" />
<glyph unicode="&#xd0;" horiz-adv-x="1554" d="M45 0v45q88 10 121 23q43 16 63 57q39 80 39 516h-205l19 98h186v72q0 340 -39 430q-16 39 -49 51q-25 10 -86 11q-25 0 -49 -3v52q332 37 653 37q395 0 587 -162t192 -500q0 -387 -263 -592q-178 -139 -528 -139q-100 0 -216 6t-130 6q-100 0 -295 -8zM510 739h262 l-18 -98h-242q4 -395 12 -520q96 -25 215 -25q246 0 356.5 141.5t110.5 458.5q0 307 -149.5 447.5t-474.5 140.5h-33q-23 -2 -35 -2q-4 -49 -4 -311v-232z" />
<glyph unicode="&#xd1;" horiz-adv-x="1570" d="M47 0v47q98 6 134 30.5t46 98.5q25 172 25 844v94q0 121 -36 163t-136 42h-29v47q104 -6 209 -6q141 0 256 8q92 -156 311 -457q221 -307 445 -616q-4 575 -6 625q-8 240 -43 305q-49 92 -205 94v47q49 0 158 -4q92 -4 137 -4q25 0 94 4q78 2 129 4v-47q-111 -6 -129 -90 q-25 -113 -35 -1229h-213l-104 139q-598 797 -701 959v-86q0 236 -18 -350q-8 -268 37 -414q63 -199 227 -201v-47q-70 2 -174 6q-80 4 -102 4q-10 0 -91 -4q-98 -4 -186 -6zM434 1532q90 244 178 243q23 0 184.5 -72.5t208.5 -72.5q51 0 113 94l49 -12q-102 -223 -180 -223 q-43 0 -201 69.5t-182 69.5q-72 0 -115 -107z" />
<glyph unicode="&#xd2;" horiz-adv-x="1644" d="M61 662q0 342 219.5 539.5t596.5 197.5q332 0 519 -176.5t187 -491.5q0 -352 -210 -559t-578 -207q-348 0 -541 183.5t-193 513.5zM332 692q0 -295 142 -456.5t396 -161.5q227 0 333 142.5t106 447.5q0 297 -142.5 458.5t-394.5 161.5q-440 0 -440 -592zM557 1759 q0 12 22 12q115 0 240 -24q16 -88 145 -242l-8 -12q-244 47 -321.5 143t-77.5 123z" />
<glyph unicode="&#xd3;" horiz-adv-x="1644" d="M61 662q0 342 219.5 539.5t596.5 197.5q332 0 519 -176.5t187 -491.5q0 -352 -210 -559t-578 -207q-348 0 -541 183.5t-193 513.5zM332 692q0 -295 142 -456.5t396 -161.5q227 0 333 142.5t106 447.5q0 297 -142.5 458.5t-394.5 161.5q-440 0 -440 -592zM741 1505 q129 156 145 242q127 25 248 24q16 0 17 -12q0 -29 -78 -123t-324 -143z" />
<glyph unicode="&#xd4;" horiz-adv-x="1644" d="M61 662q0 342 219.5 539.5t596.5 197.5q332 0 519 -176.5t187 -491.5q0 -352 -210 -559t-578 -207q-348 0 -541 183.5t-193 513.5zM332 692q0 -295 142 -456.5t396 -161.5q227 0 333 142.5t106 447.5q0 297 -142.5 458.5t-394.5 161.5q-440 0 -440 -592zM587 1505 q0 4 3 6l213 189l98 34l225 -188q4 -4 4 -12q0 -10 -41 -29.5t-80 -19.5q-16 0 -20 4l-168 114l-168 -102q-20 -12 -37 -12q-29 0 -29 16z" />
<glyph unicode="&#xd5;" horiz-adv-x="1644" d="M61 662q0 342 219.5 539.5t596.5 197.5q332 0 519 -176.5t187 -491.5q0 -352 -210 -559t-578 -207q-348 0 -541 183.5t-193 513.5zM332 692q0 -295 142 -456.5t396 -161.5q227 0 333 142.5t106 447.5q0 297 -142.5 458.5t-394.5 161.5q-440 0 -440 -592zM471 1532 q90 244 178 243q23 0 184.5 -72.5t208.5 -72.5q51 0 113 94l49 -12q-102 -223 -180 -223q-43 0 -201 69.5t-182 69.5q-72 0 -115 -107z" />
<glyph unicode="&#xd6;" horiz-adv-x="1644" d="M61 662q0 342 219.5 539.5t596.5 197.5q332 0 519 -176.5t187 -491.5q0 -352 -210 -559t-578 -207q-348 0 -541 183.5t-193 513.5zM332 692q0 -295 142 -456.5t396 -161.5q227 0 333 142.5t106 447.5q0 297 -142.5 458.5t-394.5 161.5q-440 0 -440 -592zM600 1728 q82 51 160 51q37 0 36 -106q0 -74 -42 -113t-144 -67q6 37 6 86q0 94 -16 149zM913 1728q82 51 158 51q37 0 37 -106q0 -76 -41 -114t-144 -66q6 37 6 86q0 94 -16 149z" />
<glyph unicode="&#xd7;" horiz-adv-x="1705" d="M287 152l458 458l-458 461l116 117l459 -459l461 459l117 -117l-459 -461l459 -458l-117 -119l-461 461l-459 -461z" />
<glyph unicode="&#xd8;" horiz-adv-x="1644" d="M61 662q0 342 220.5 539.5t595.5 197.5q88 0 188 -19l43 103h90l-51 -121q436 -139 436 -631q0 -352 -210 -559t-578 -207q-127 0 -240 27l-61 -144h-91l72 168q-414 154 -414 646zM332 692q0 -336 213 -516l459 1063q-111 45 -232 45q-440 0 -440 -592zM614 129 q121 -55 256 -55q227 0 333 142t106 448q0 354 -234 534z" />
<glyph unicode="&#xd9;" horiz-adv-x="1576" d="M47 1321v45q154 -8 301 -8q162 0 389 8v-45q-102 -10 -137 -29q-43 -20 -61 -84q-27 -88 -27 -506q0 -211 6 -288q8 -117 39 -168q53 -88 141 -121q74 -27 222 -27q201 0 274 107q68 98 68 354q0 463 -43 621q-37 135 -230 141v45q293 -10 283 -10q94 0 262 10v-45 q-115 -8 -135 -92q-23 -94 -29 -678q-2 -168 -16 -244q-23 -113 -86 -184q-133 -147 -453 -148q-281 0 -413 104.5t-132 326.5q0 2 2 102v197q0 362 -22 479q-14 76 -55 101.5t-148 35.5zM576 1759q0 12 22 12q115 0 240 -24q16 -88 145 -242l-8 -12q-244 47 -321.5 143 t-77.5 123z" />
<glyph unicode="&#xda;" horiz-adv-x="1576" d="M47 1321v45q154 -8 301 -8q162 0 389 8v-45q-102 -10 -137 -29q-43 -20 -61 -84q-27 -88 -27 -506q0 -211 6 -288q8 -117 39 -168q53 -88 141 -121q74 -27 222 -27q201 0 274 107q68 98 68 354q0 463 -43 621q-37 135 -230 141v45q293 -10 283 -10q94 0 262 10v-45 q-115 -8 -135 -92q-23 -94 -29 -678q-2 -168 -16 -244q-23 -113 -86 -184q-133 -147 -453 -148q-281 0 -413 104.5t-132 326.5q0 2 2 102v197q0 362 -22 479q-14 76 -55 101.5t-148 35.5zM760 1505q129 156 145 242q127 25 248 24q16 0 17 -12q0 -29 -78 -123t-324 -143z " />
<glyph unicode="&#xdb;" horiz-adv-x="1576" d="M47 1321v45q154 -8 301 -8q162 0 389 8v-45q-102 -10 -137 -29q-43 -20 -61 -84q-27 -88 -27 -506q0 -211 6 -288q8 -117 39 -168q53 -88 141 -121q74 -27 222 -27q201 0 274 107q68 98 68 354q0 463 -43 621q-37 135 -230 141v45q293 -10 283 -10q94 0 262 10v-45 q-115 -8 -135 -92q-23 -94 -29 -678q-2 -168 -16 -244q-23 -113 -86 -184q-133 -147 -453 -148q-281 0 -413 104.5t-132 326.5q0 2 2 102v197q0 362 -22 479q-14 76 -55 101.5t-148 35.5zM606 1505q0 4 3 6l213 189l98 34l225 -188q4 -4 4 -12q0 -10 -41 -29.5t-80 -19.5 q-16 0 -20 4l-168 114l-168 -102q-20 -12 -37 -12q-29 0 -29 16z" />
<glyph unicode="&#xdc;" horiz-adv-x="1576" d="M47 1321v45q154 -8 301 -8q162 0 389 8v-45q-102 -10 -137 -29q-43 -20 -61 -84q-27 -88 -27 -506q0 -211 6 -288q8 -117 39 -168q53 -88 141 -121q74 -27 222 -27q201 0 274 107q68 98 68 354q0 463 -43 621q-37 135 -230 141v45q293 -10 283 -10q94 0 262 10v-45 q-115 -8 -135 -92q-23 -94 -29 -678q-2 -168 -16 -244q-23 -113 -86 -184q-133 -147 -453 -148q-281 0 -413 104.5t-132 326.5q0 2 2 102v197q0 362 -22 479q-14 76 -55 101.5t-148 35.5zM619 1728q82 51 160 51q37 0 36 -106q0 -74 -42 -113t-144 -67q6 37 6 86 q0 94 -16 149zM932 1728q82 51 158 51q37 0 37 -106q0 -76 -41 -114t-144 -66q6 37 6 86q0 94 -16 149z" />
<glyph unicode="&#xdd;" horiz-adv-x="1411" d="M4 1321v47q59 -2 162 -6q90 -4 127 -4q43 0 156 4q125 4 200 6v-47q-80 -10 -113.5 -30.5t-33.5 -67.5q0 -102 278 -518q272 360 273 532q0 45 -33 62.5t-117 21.5v45q164 -8 258 -8q29 0 105 4q86 4 137 4v-45q-92 -6 -158 -80q-25 -29 -422 -643v-59q0 -328 39 -418 q16 -37 60 -53q31 -10 125 -23v-45q-246 8 -349 8q-90 0 -340 -8v45q152 20 177 55q49 74 49 492q-287 461 -346 545q-133 188 -211 188q-10 0 -23 -4zM680 1505q129 156 145 242q127 25 248 24q16 0 17 -12q0 -29 -78 -123t-324 -143z" />
<glyph unicode="&#xde;" horiz-adv-x="1208" d="M53 0v45q113 10 151 33.5t54 101.5q20 96 21 502q0 403 -21 500q-16 78 -55 103.5t-150 35.5v45q162 -8 324 -8q182 0 364 8v-45q-127 -6 -171 -57.5t-48 -198.5l187 4q240 0 346 -82t106 -270q0 -397 -510 -398q-82 0 -131 9q0 -168 40 -221.5t181 -61.5v-45 q-260 8 -352 8q-180 0 -336 -8zM518 432q70 -20 148 -20q240 0 239 276q0 291 -309 291q-25 0 -78 -4v-543z" />
<glyph unicode="&#xdf;" horiz-adv-x="1296" d="M39 692l22 101q83 24 134 92q-6 307 -7 272q0 211 145.5 330t403.5 119q182 0 286.5 -95.5t104.5 -261.5q0 -195 -161 -327q-117 -96 -123 -101q-47 -47 -47 -90q0 -59 73 -104q94 -49 189 -97q106 -53 147 -106q47 -59 47 -152q0 -135 -104.5 -212.5t-294.5 -77.5 q-162 0 -287 43q16 117 21 208h37q6 -72 81.5 -113.5t206.5 -41.5q121 0 121 127q0 57 -35 94q-29 29 -110 72q-174 90 -211 118q-78 63 -78 156q0 96 82 166q55 45 113 90q66 53 96 103q55 84 55 217q0 283 -284 282q-152 0 -201 -102q-41 -88 -41 -342q0 -39 2 -125 q2 -78 2 -133l-2 -545l12 -543l-190 -82l-66 -6q12 352 19 1067h-158z" />
<glyph unicode="&#xe0;" horiz-adv-x="1003" d="M68 180q0 127 106 226q96 90 195 90q76 0 182 -43q4 49 4 67q0 88 -35 126t-117 38q-111 0 -233 -41l14 92q199 88 430 88q96 0 133 -39t37 -139q0 -29 -8 -112.5t-8 -139.5q0 -162 24.5 -220t96.5 -58q41 0 129 16l18 -43q-219 -106 -358 -106q-96 0 -109 124 q-117 -125 -290 -124q-98 0 -154.5 54t-56.5 144zM197 1192q0 12 22 12q115 0 240 -24q16 -88 145 -242l-8 -12q-244 47 -321.5 143t-77.5 123zM291 231q0 -121 112 -120q74 0 148 61q-4 66 -4 117l2 23q2 24 2 48q-76 16 -143 17q-68 0 -92.5 -31t-24.5 -115z" />
<glyph unicode="&#xe1;" horiz-adv-x="1003" d="M68 180q0 127 106 226q96 90 195 90q76 0 182 -43q4 49 4 67q0 88 -35 126t-117 38q-111 0 -233 -41l14 92q199 88 430 88q96 0 133 -39t37 -139q0 -29 -8 -112.5t-8 -139.5q0 -162 24.5 -220t96.5 -58q41 0 129 16l18 -43q-219 -106 -358 -106q-96 0 -109 124 q-117 -125 -290 -124q-98 0 -154.5 54t-56.5 144zM291 231q0 -121 112 -120q74 0 148 61q-4 66 -4 117l2 23q2 24 2 48q-76 16 -143 17q-68 0 -92.5 -31t-24.5 -115zM381 938q129 156 145 242q127 25 248 24q16 0 17 -12q0 -29 -78 -123t-324 -143z" />
<glyph unicode="&#xe2;" horiz-adv-x="1003" d="M68 180q0 127 106 226q96 90 195 90q76 0 182 -43q4 49 4 67q0 88 -35 126t-117 38q-111 0 -233 -41l14 92q199 88 430 88q96 0 133 -39t37 -139q0 -29 -8 -112.5t-8 -139.5q0 -162 24.5 -220t96.5 -58q41 0 129 16l18 -43q-219 -106 -358 -106q-96 0 -109 124 q-117 -125 -290 -124q-98 0 -154.5 54t-56.5 144zM227 938q0 4 3 6l213 189l98 34l225 -188q4 -4 4 -12q0 -10 -41 -29.5t-80 -19.5q-16 0 -20 4l-168 114l-168 -102q-20 -12 -37 -12q-29 0 -29 16zM291 231q0 -121 112 -120q74 0 148 61q-4 66 -4 117l2 23q2 24 2 48 q-76 16 -143 17q-68 0 -92.5 -31t-24.5 -115z" />
<glyph unicode="&#xe3;" horiz-adv-x="1003" d="M68 180q0 127 106 226q96 90 195 90q76 0 182 -43q4 49 4 67q0 88 -35 126t-117 38q-111 0 -233 -41l14 92q199 88 430 88q96 0 133 -39t37 -139q0 -29 -8 -112.5t-8 -139.5q0 -162 24.5 -220t96.5 -58q41 0 129 16l18 -43q-219 -106 -358 -106q-96 0 -109 124 q-117 -125 -290 -124q-98 0 -154.5 54t-56.5 144zM111 965q90 244 178 243q23 0 184.5 -72.5t208.5 -72.5q51 0 113 94l49 -12q-102 -223 -180 -223q-43 0 -201 69.5t-182 69.5q-72 0 -115 -107zM291 231q0 -121 112 -120q74 0 148 61q-4 66 -4 117l2 23q2 24 2 48 q-76 16 -143 17q-68 0 -92.5 -31t-24.5 -115z" />
<glyph unicode="&#xe4;" horiz-adv-x="1003" d="M68 180q0 127 106 226q96 90 195 90q76 0 182 -43q4 49 4 67q0 88 -35 126t-117 38q-111 0 -233 -41l14 92q199 88 430 88q96 0 133 -39t37 -139q0 -29 -8 -112.5t-8 -139.5q0 -162 24.5 -220t96.5 -58q41 0 129 16l18 -43q-219 -106 -358 -106q-96 0 -109 124 q-117 -125 -290 -124q-98 0 -154.5 54t-56.5 144zM240 1161q82 51 160 51q37 0 36 -106q0 -74 -42 -113t-144 -67q6 37 6 86q0 94 -16 149zM291 231q0 -121 112 -120q74 0 148 61q-4 66 -4 117l2 23q2 24 2 48q-76 16 -143 17q-68 0 -92.5 -31t-24.5 -115zM553 1161 q82 51 158 51q37 0 37 -106q0 -76 -41 -114t-144 -66q6 37 6 86q0 94 -16 149z" />
<glyph unicode="&#xe5;" horiz-adv-x="991" d="M55 180q0 127 107 226q96 90 194 90q80 0 185 -43q4 49 4 65q0 90 -36 128t-118 38q-111 0 -233 -41l14 92q199 88 432 88q94 0 131 -39t37 -139q0 -27 -7 -110.5t-7 -141.5q0 -135 8 -174q25 -104 111 -104q43 0 131 16l18 -43q-219 -106 -358 -106q-98 0 -111 124 q-117 -125 -291 -124q-98 0 -154.5 54t-56.5 144zM279 231q0 -121 114 -120q74 0 148 61q-4 66 -4 117l2 24v47q-76 16 -144 17q-68 0 -92 -31t-24 -115zM358 1073q0 66 45.5 112t110.5 46q66 0 111 -46t45 -112q0 -63 -45 -109t-111 -46q-63 0 -109.5 46t-46.5 109z M432 1069q0 -33 23.5 -56.5t58.5 -23.5q33 0 57.5 24.5t24.5 55.5q0 33 -24.5 57.5t-57.5 24.5q-35 0 -58.5 -23.5t-23.5 -58.5z" />
<glyph unicode="&#xe6;" horiz-adv-x="1427" d="M66 182q0 131 104 230q96 88 199 88q82 0 186 -43q2 41 2 78q0 158 -156 157q-111 0 -233 -43l14 92q205 90 418 90q117 0 150 -88q133 88 299 88q317 0 317 -389v-6l-575 -37q12 -279 309 -278q119 0 248 49l-23 -92l-65 -43q-137 -55 -287 -55q-227 0 -348 153 q-145 -152 -349 -151q-100 0 -155 53t-55 147zM291 233q0 -121 115 -120q98 0 180 88q-31 70 -35 164q-92 16 -143 16q-63 0 -90 -28.5t-27 -119.5zM795 512h327q-8 195 -178 195q-129 0 -149 -195z" />
<glyph unicode="&#xe7;" horiz-adv-x="874" d="M66 383q0 217 170 340q150 109 313 108q86 0 242 -43q-18 -111 -21 -233h-37q-31 156 -258 156q-170 0 -170 -277q0 -152 84 -236.5t236 -84.5q96 -1 192 32l-20 -86l-35 -24q-119 -55 -281 -55q-31 0 -71 4q-6 -18 -7 -33q0 -37 113 -57q100 -18 135 -44q47 -31 47 -100 q0 -168 -239 -168q-72 0 -154 29l8 98q127 -55 205 -55q74 0 74 57q0 39 -41 58q-27 12 -121 30q-109 20 -108 64q0 35 34 133q-291 80 -290 387z" />
<glyph unicode="&#xe8;" horiz-adv-x="942" d="M66 377q0 201 139 327.5t358 126.5q318 0 318 -395l-576 -37q12 -279 309 -278q119 0 248 49l-22 -92l-66 -43q-137 -55 -280 -55q-201 0 -314.5 106.5t-113.5 290.5zM240 1192q0 12 22 12q115 0 240 -24q16 -88 145 -242l-8 -12q-244 47 -321.5 143t-77.5 123zM309 512 h334q-12 199 -178 199q-137 0 -156 -199z" />
<glyph unicode="&#xe9;" horiz-adv-x="942" d="M66 377q0 201 139 327.5t358 126.5q318 0 318 -395l-576 -37q12 -279 309 -278q119 0 248 49l-22 -92l-66 -43q-137 -55 -280 -55q-201 0 -314.5 106.5t-113.5 290.5zM309 512h334q-12 199 -178 199q-137 0 -156 -199zM424 938q129 156 145 242q127 25 248 24 q16 0 17 -12q0 -29 -78 -123t-324 -143z" />
<glyph unicode="&#xea;" horiz-adv-x="942" d="M66 377q0 201 139 327.5t358 126.5q318 0 318 -395l-576 -37q12 -279 309 -278q119 0 248 49l-22 -92l-66 -43q-137 -55 -280 -55q-201 0 -314.5 106.5t-113.5 290.5zM270 938q0 4 3 6l213 189l98 34l225 -188q4 -4 4 -12q0 -10 -41 -29.5t-80 -19.5q-16 0 -20 4 l-168 114l-168 -102q-20 -12 -37 -12q-29 0 -29 16zM309 512h334q-12 199 -178 199q-137 0 -156 -199z" />
<glyph unicode="&#xeb;" horiz-adv-x="942" d="M66 377q0 201 139 327.5t358 126.5q318 0 318 -395l-576 -37q12 -279 309 -278q119 0 248 49l-22 -92l-66 -43q-137 -55 -280 -55q-201 0 -314.5 106.5t-113.5 290.5zM283 1161q82 51 160 51q37 0 36 -106q0 -74 -42 -113t-144 -67q6 37 6 86q0 94 -16 149zM309 512h334 q-12 199 -178 199q-137 0 -156 -199zM596 1161q82 51 158 51q37 0 37 -106q0 -76 -41 -114t-144 -66q6 37 6 86q0 94 -16 149z" />
<glyph unicode="&#xec;" horiz-adv-x="626" d="M0 715q307 109 420 108q49 0 49 -147v-64q-2 -47 -2 -73v-541h-254q25 213 25 408q0 160 -15 212q-20 63 -82 64q-51 0 -123 -10zM47 1192q0 12 22 12q115 0 240 -24q16 -88 145 -242l-8 -12q-244 47 -321.5 143t-77.5 123z" />
<glyph unicode="&#xed;" horiz-adv-x="626" d="M0 715q307 109 420 108q49 0 49 -147v-64q-2 -47 -2 -73v-541h-254q25 213 25 408q0 160 -15 212q-20 63 -82 64q-51 0 -123 -10zM231 938q129 156 145 242q127 25 248 24q16 0 17 -12q0 -29 -78 -123t-324 -143z" />
<glyph unicode="&#xee;" horiz-adv-x="626" d="M0 715q307 109 420 108q49 0 49 -147v-64q-2 -47 -2 -73v-541h-254q25 213 25 408q0 160 -15 212q-20 63 -82 64q-51 0 -123 -10zM77 938q0 4 3 6l213 189l98 34l225 -188q4 -4 4 -12q0 -10 -41 -29.5t-80 -19.5q-16 0 -20 4l-168 114l-168 -102q-20 -12 -37 -12 q-29 0 -29 16z" />
<glyph unicode="&#xef;" horiz-adv-x="626" d="M0 715q307 109 420 108q49 0 49 -147v-64q-2 -47 -2 -73v-541h-254q25 213 25 408q0 160 -15 212q-20 63 -82 64q-51 0 -123 -10zM90 1161q82 51 160 51q37 0 36 -106q0 -74 -42 -113t-144 -67q6 37 6 86q0 94 -16 149zM403 1161q82 51 158 51q37 0 37 -106 q0 -76 -41 -114t-144 -66q6 37 6 86q0 94 -16 149z" />
<glyph unicode="&#xf0;" horiz-adv-x="985" d="M47 367q0 221 118 338.5t337 117.5q96 0 192 -53q-2 225 -223 504l-199 -148v119l140 101q-117 123 -267 178l37 75q209 -20 385 -137l191 140v-119l-113 -82q305 -334 305 -793q0 -629 -461 -628q-215 0 -328.5 99t-113.5 288zM291 420q0 -326 239 -326q187 0 187 279 q0 336 -242 336q-100 0 -142 -67t-42 -222z" />
<glyph unicode="&#xf1;" horiz-adv-x="1245" d="M0 715q303 109 408 108q63 0 63 -131v-30q254 162 461 161q102 0 102 -88q0 12 -13 -107.5t-13 -254.5q0 -147 20 -195q23 -57 100 -57q35 0 134 16l18 -45q-242 -111 -401 -110q-61 0 -85 32.5t-24 114.5q0 20 4 115.5t4 169.5q0 150 -14 196q-16 57 -76 58 q-88 0 -219 -95v-579h-256q27 207 27 405q0 164 -15 217q-20 66 -82 66q-53 0 -125 -10zM271 965q90 244 178 243q23 0 184.5 -72.5t208.5 -72.5q51 0 113 94l49 -12q-102 -223 -180 -223q-43 0 -201 69.5t-182 69.5q-72 0 -115 -107z" />
<glyph unicode="&#xf2;" horiz-adv-x="1038" d="M66 369q0 219 138 340.5t386 121.5q188 0 289.5 -102.5t101.5 -292.5q0 -207 -137 -331.5t-367 -124.5q-199 0 -305 101t-106 288zM254 1192q0 12 22 12q115 0 240 -24q16 -88 145 -242l-8 -12q-244 47 -321.5 143t-77.5 123zM311 424q0 -336 244 -336q96 0 138 69.5 t42 223.5q0 336 -237 336q-102 0 -144.5 -67.5t-42.5 -225.5z" />
<glyph unicode="&#xf3;" horiz-adv-x="1038" d="M66 369q0 219 138 340.5t386 121.5q188 0 289.5 -102.5t101.5 -292.5q0 -207 -137 -331.5t-367 -124.5q-199 0 -305 101t-106 288zM311 424q0 -336 244 -336q96 0 138 69.5t42 223.5q0 336 -237 336q-102 0 -144.5 -67.5t-42.5 -225.5zM438 938q129 156 145 242 q127 25 248 24q16 0 17 -12q0 -29 -78 -123t-324 -143z" />
<glyph unicode="&#xf4;" horiz-adv-x="1038" d="M66 369q0 219 138 340.5t386 121.5q188 0 289.5 -102.5t101.5 -292.5q0 -207 -137 -331.5t-367 -124.5q-199 0 -305 101t-106 288zM284 938q0 4 3 6l213 189l98 34l225 -188q4 -4 4 -12q0 -10 -41 -29.5t-80 -19.5q-16 0 -20 4l-168 114l-168 -102q-20 -12 -37 -12 q-29 0 -29 16zM311 424q0 -336 244 -336q96 0 138 69.5t42 223.5q0 336 -237 336q-102 0 -144.5 -67.5t-42.5 -225.5z" />
<glyph unicode="&#xf5;" horiz-adv-x="1038" d="M66 369q0 219 138 340.5t386 121.5q188 0 289.5 -102.5t101.5 -292.5q0 -207 -137 -331.5t-367 -124.5q-199 0 -305 101t-106 288zM168 965q90 244 178 243q23 0 184.5 -72.5t208.5 -72.5q51 0 113 94l49 -12q-102 -223 -180 -223q-43 0 -201 69.5t-182 69.5 q-72 0 -115 -107zM311 424q0 -336 244 -336q96 0 138 69.5t42 223.5q0 336 -237 336q-102 0 -144.5 -67.5t-42.5 -225.5z" />
<glyph unicode="&#xf6;" horiz-adv-x="1038" d="M66 369q0 219 138 340.5t386 121.5q188 0 289.5 -102.5t101.5 -292.5q0 -207 -137 -331.5t-367 -124.5q-199 0 -305 101t-106 288zM297 1161q82 51 160 51q37 0 36 -106q0 -74 -42 -113t-144 -67q6 37 6 86q0 94 -16 149zM311 424q0 -336 244 -336q96 0 138 69.5 t42 223.5q0 336 -237 336q-102 0 -144.5 -67.5t-42.5 -225.5zM610 1161q82 51 158 51q37 0 37 -106q0 -76 -41 -114t-144 -66q6 37 6 86q0 94 -16 149z" />
<glyph unicode="&#xf7;" horiz-adv-x="1705" d="M254 528v166h1198v-166h-1198zM717 229q0 57 41 97.5t96 40.5q57 0 97 -40t40 -98q0 -55 -40 -95t-97 -40t-97 39t-40 96zM717 989q0 57 41 98t96 41q57 0 97 -40.5t40 -98.5q0 -55 -40 -95t-97 -40t-97 39t-40 96z" />
<glyph unicode="&#xf8;" horiz-adv-x="1042" d="M66 371q0 217 139 338.5t387 121.5q20 0 57 -4l53 125h74l-59 -137q268 -76 268 -377q0 -207 -138 -332.5t-368 -125.5q-59 0 -114 12l-72 -166h-76l80 186q-231 92 -231 359zM303 403q0 -152 57 -243l244 561q-37 14 -84 14q-127 0 -172 -70.5t-45 -261.5zM414 106 q57 -35 135 -34q113 0 154.5 73.5t41.5 257.5q0 201 -83 283z" />
<glyph unicode="&#xf9;" horiz-adv-x="1239" d="M0 715q317 109 446 108q41 0 41 -35q0 16 -10 -129t-10 -309q0 -127 10 -162q14 -51 72 -51q88 0 225 96v560l256 57l10 -19q-37 -135 -36 -456q0 -131 8 -166q25 -90 116 -90q51 0 129 14l17 -43q-236 -109 -393 -108q-57 0 -78 34.5t-25 128.5q-238 -164 -422 -163 q-129 0 -129 100q0 6 5.5 109.5t5.5 201.5q0 166 -15 221q-18 68 -80 68q-53 0 -125 -10zM320 1192q0 12 22 12q115 0 240 -24q16 -88 145 -242l-8 -12q-244 47 -321.5 143t-77.5 123z" />
<glyph unicode="&#xfa;" horiz-adv-x="1239" d="M0 715q317 109 446 108q41 0 41 -35q0 16 -10 -129t-10 -309q0 -127 10 -162q14 -51 72 -51q88 0 225 96v560l256 57l10 -19q-37 -135 -36 -456q0 -131 8 -166q25 -90 116 -90q51 0 129 14l17 -43q-236 -109 -393 -108q-57 0 -78 34.5t-25 128.5q-238 -164 -422 -163 q-129 0 -129 100q0 6 5.5 109.5t5.5 201.5q0 166 -15 221q-18 68 -80 68q-53 0 -125 -10zM504 938q129 156 145 242q127 25 248 24q16 0 17 -12q0 -29 -78 -123t-324 -143z" />
<glyph unicode="&#xfb;" horiz-adv-x="1239" d="M0 715q317 109 446 108q41 0 41 -35q0 16 -10 -129t-10 -309q0 -127 10 -162q14 -51 72 -51q88 0 225 96v560l256 57l10 -19q-37 -135 -36 -456q0 -131 8 -166q25 -90 116 -90q51 0 129 14l17 -43q-236 -109 -393 -108q-57 0 -78 34.5t-25 128.5q-238 -164 -422 -163 q-129 0 -129 100q0 6 5.5 109.5t5.5 201.5q0 166 -15 221q-18 68 -80 68q-53 0 -125 -10zM350 938q0 4 3 6l213 189l98 34l225 -188q4 -4 4 -12q0 -10 -41 -29.5t-80 -19.5q-16 0 -20 4l-168 114l-168 -102q-20 -12 -37 -12q-29 0 -29 16z" />
<glyph unicode="&#xfc;" horiz-adv-x="1239" d="M0 715q317 109 446 108q41 0 41 -35q0 16 -10 -129t-10 -309q0 -127 10 -162q14 -51 72 -51q88 0 225 96v560l256 57l10 -19q-37 -135 -36 -456q0 -131 8 -166q25 -90 116 -90q51 0 129 14l17 -43q-236 -109 -393 -108q-57 0 -78 34.5t-25 128.5q-238 -164 -422 -163 q-129 0 -129 100q0 6 5.5 109.5t5.5 201.5q0 166 -15 221q-18 68 -80 68q-53 0 -125 -10zM363 1161q82 51 160 51q37 0 36 -106q0 -74 -42 -113t-144 -67q6 37 6 86q0 94 -16 149zM676 1161q82 51 158 51q37 0 37 -106q0 -76 -41 -114t-144 -66q6 37 6 86q0 94 -16 149z" />
<glyph unicode="&#xfd;" horiz-adv-x="1003" d="M-61 690q248 133 335 133q51 0 88 -80q25 -49 89 -245q57 -176 73 -217q31 -76 60 -76q49 0 94 96q55 113 55 287v67q-2 51 -2 86q0 100 184 101q41 0 41 -51q0 -160 -100 -355q-35 -68 -135 -221q-96 -143 -137 -233q-121 -256 -121 -402v-186q0 -98 -189 -99 q-37 0 -36 66q0 184 81 354q39 80 211 342q-63 -68 -104 -67q-57 0 -104 133q-57 174 -117 348q-47 121 -72 154q-35 45 -100 45q-31 0 -76 -17zM420 938q129 156 145 242q127 25 248 24q16 0 17 -12q0 -29 -78 -123t-324 -143z" />
<glyph unicode="&#xfe;" horiz-adv-x="1157" d="M16 1489q332 117 426 117q31 0 40.5 -18.5t9.5 -69.5q0 29 -5.5 -191.5t-5.5 -470.5v-184q156 152 346 151q270 0 271 -329q0 -285 -180 -420q-123 -92 -211 -92q-84 0 -226 47v-222q0 -338 8 -434l-200 -61h-76q37 215 37 668l2 1071q0 240 -16 311q-20 96 -93 96 q-35 0 -108 -14zM481 172q162 -49 238 -49q141 0 141 260q0 133 -47 206t-125 73q-100 0 -207 -82v-408z" />
<glyph unicode="&#xff;" horiz-adv-x="1003" d="M-61 690q248 133 335 133q51 0 88 -80q25 -49 89 -245q57 -176 73 -217q31 -76 60 -76q49 0 94 96q55 113 55 287v67q-2 51 -2 86q0 100 184 101q41 0 41 -51q0 -160 -100 -355q-35 -68 -135 -221q-96 -143 -137 -233q-121 -256 -121 -402v-186q0 -98 -189 -99 q-37 0 -36 66q0 184 81 354q39 80 211 342q-63 -68 -104 -67q-57 0 -104 133q-57 174 -117 348q-47 121 -72 154q-35 45 -100 45q-31 0 -76 -17zM279 1161q82 51 160 51q37 0 36 -106q0 -74 -42 -113t-144 -67q6 37 6 86q0 94 -16 149zM592 1161q82 51 158 51q37 0 37 -106 q0 -76 -41 -114t-144 -66q6 37 6 86q0 94 -16 149z" />
<glyph unicode="&#x152;" horiz-adv-x="2107" d="M61 662q0 350 209 543.5t586 193.5q127 0 397 -41q223 2 426 8q193 8 176 8q96 0 109 -114v-166h-45q-8 96 -81 132t-236 36q-92 0 -189 -7v-491h117q180 0 235 22q63 29 72 127h47q-8 -121 -8 -206q0 -78 8 -201h-47q-2 102 -84 131q-61 20 -276 20h-64v-196 q0 -168 10 -230q12 -84 54 -104q55 -29 213 -29q137 0 203.5 41t86.5 146l45 -9l-24 -178q-10 -76 -34.5 -94t-98.5 -18q-78 0 -277.5 11t-322.5 11q-49 0 -195.5 -21.5t-247.5 -21.5q-358 0 -561 185.5t-203 511.5zM332 692q0 -301 144.5 -459.5t414.5 -158.5 q131 0 190.5 31.5t75.5 117.5q14 76 14 453v90q0 340 -28 397q-59 119 -346 119q-238 0 -351.5 -142.5t-113.5 -447.5z" />
<glyph unicode="&#x153;" horiz-adv-x="1617" d="M66 371q0 219 138 339.5t386 120.5q184 0 295 -126q139 127 344 126q319 0 319 -395l-577 -37q12 -279 309 -278q119 0 248 49l-23 -92l-63 -43q-137 -55 -289 -55q-207 0 -315 129q-145 -129 -361 -129q-188 0 -299.5 105t-111.5 286zM311 424q0 -330 246 -330 q96 0 136 68.5t40 224.5q0 330 -233 330q-102 0 -145.5 -67.5t-43.5 -225.5zM975 512h325q-6 195 -174 195q-127 0 -151 -195z" />
<glyph unicode="&#x178;" horiz-adv-x="1411" d="M4 1321v47q59 -2 162 -6q90 -4 127 -4q43 0 156 4q125 4 200 6v-47q-80 -10 -113.5 -30.5t-33.5 -67.5q0 -102 278 -518q272 360 273 532q0 45 -33 62.5t-117 21.5v45q164 -8 258 -8q29 0 105 4q86 4 137 4v-45q-92 -6 -158 -80q-25 -29 -422 -643v-59q0 -328 39 -418 q16 -37 60 -53q31 -10 125 -23v-45q-246 8 -349 8q-90 0 -340 -8v45q152 20 177 55q49 74 49 492q-287 461 -346 545q-133 188 -211 188q-10 0 -23 -4zM539 1728q82 51 160 51q37 0 36 -106q0 -74 -42 -113t-144 -67q6 37 6 86q0 94 -16 149zM852 1728q82 51 158 51 q37 0 37 -106q0 -76 -41 -114t-144 -66q6 37 6 86q0 94 -16 149z" />
<glyph unicode="&#x2c6;" d="M276 938q0 4 3 6l213 189l98 34l225 -188q4 -4 4 -12q0 -10 -41 -29.5t-80 -19.5q-16 0 -20 4l-168 114l-168 -102q-20 -12 -37 -12q-29 0 -29 16z" />
<glyph unicode="&#x2dc;" d="M160 965q90 244 178 243q23 0 184.5 -72.5t208.5 -72.5q51 0 113 94l49 -12q-102 -223 -180 -223q-43 0 -201 69.5t-182 69.5q-72 0 -115 -107z" />
<glyph unicode="&#x2000;" horiz-adv-x="889" />
<glyph unicode="&#x2001;" horiz-adv-x="1779" />
<glyph unicode="&#x2002;" horiz-adv-x="889" />
<glyph unicode="&#x2003;" horiz-adv-x="1779" />
<glyph unicode="&#x2004;" horiz-adv-x="593" />
<glyph unicode="&#x2005;" horiz-adv-x="444" />
<glyph unicode="&#x2006;" horiz-adv-x="296" />
<glyph unicode="&#x2007;" horiz-adv-x="296" />
<glyph unicode="&#x2008;" horiz-adv-x="222" />
<glyph unicode="&#x2009;" horiz-adv-x="355" />
<glyph unicode="&#x200a;" horiz-adv-x="98" />
<glyph unicode="&#x2010;" horiz-adv-x="847" d="M57 373v141h729v-141h-729z" />
<glyph unicode="&#x2011;" horiz-adv-x="847" d="M57 373v141h729v-141h-729z" />
<glyph unicode="&#x2012;" horiz-adv-x="847" d="M57 373v141h729v-141h-729z" />
<glyph unicode="&#x2013;" d="M78 373v141h864v-141h-864z" />
<glyph unicode="&#x2014;" horiz-adv-x="2048" d="M78 373v141h1888v-141h-1888z" />
<glyph unicode="&#x2018;" horiz-adv-x="419" d="M72 1343q0 23 59 23h156l108 -379q2 -6 2 -14q0 -16 -22 -17h-70l-129 201q-104 162 -104 186z" />
<glyph unicode="&#x2019;" horiz-adv-x="421" d="M25 956l41 201q31 154 50 181.5t105 27.5h133l-213 -379q-16 -31 -47 -31h-69z" />
<glyph unicode="&#x201a;" horiz-adv-x="389" d="M33 -213l41 201q31 154 50 181.5t105 27.5h133l-212 -379q-16 -31 -48 -31h-69z" />
<glyph unicode="&#x201c;" horiz-adv-x="761" d="M72 1343q0 23 59 23h156l108 -379q2 -6 2 -14q0 -16 -22 -17h-70l-129 201q-104 162 -104 186zM410 1343q0 23 59 23h158l108 -379q2 -6 2 -14q0 -16 -22 -17h-70l-129 201q-106 166 -106 186z" />
<glyph unicode="&#x201d;" horiz-adv-x="761" d="M25 956l41 201q31 154 50 181.5t105 27.5h133l-213 -379q-16 -31 -47 -31h-69zM365 956l41 201q31 156 47 178q20 31 106 31h135l-213 -379q-16 -31 -47 -31h-69z" />
<glyph unicode="&#x201e;" horiz-adv-x="729" d="M33 -213l41 201q31 154 50 181.5t105 27.5h133l-212 -379q-16 -31 -48 -31h-69zM373 -213l41 201q31 156 47 178q20 31 106 31h135l-213 -379q-16 -31 -47 -31h-69z" />
<glyph unicode="&#x2022;" horiz-adv-x="1085" d="M133 522q0 170 120 290t290 120t289.5 -120t119.5 -290t-119.5 -289.5t-289.5 -119.5t-290 119.5t-120 289.5z" />
<glyph unicode="&#x2026;" horiz-adv-x="1384" d="M68 106q0 49 32.5 82t83.5 33t88 -34t37 -81q0 -53 -35.5 -88.5t-89.5 -35.5q-51 0 -83.5 34.5t-32.5 89.5zM573 106q0 49 33 82t82 33q51 0 88 -34t37 -81q0 -53 -36 -88.5t-89 -35.5q-51 0 -83 33.5t-32 90.5zM1077 106q0 49 33 82t82 33q53 0 89 -34t36 -81 q0 -53 -36 -88.5t-89 -35.5q-51 0 -83 34.5t-32 89.5z" />
<glyph unicode="&#x202f;" horiz-adv-x="355" />
<glyph unicode="&#x2039;" horiz-adv-x="698" d="M100 336v156l471 319l29 -61l-297 -336l297 -342l-29 -62z" />
<glyph unicode="&#x203a;" horiz-adv-x="698" d="M98 72l295 342l-295 336l29 61l471 -319v-156l-471 -326z" />
<glyph unicode="&#x205f;" horiz-adv-x="444" />
<glyph unicode="&#x2122;" horiz-adv-x="598" d="M14 1317v49h209v-49h-73v-195h-60v195h-76zM272 1122v244h84l58 -147l53 147h84v-244h-57v183l-68 -183h-27l-69 183v-183h-58z" />
<glyph unicode="&#x25fc;" horiz-adv-x="839" d="M0 0v840h840v-840h-840z" />
</font>
</defs>
</svg>
